<?xml version="1.0" encoding="utf-8"?>
<!-- Generator: Adobe Illustrator 21.1.0, SVG Export Plug-In . SVG Version: 6.00 Build 0)  -->
<svg version="1.1" id="Layer_1" xmlns="http://www.w3.org/2000/svg" xmlns:xlink="http://www.w3.org/1999/xlink" x="0px" y="0px"
	 viewBox="0 0 428.3 390" style="enable-background:new 0 0 428.3 390;" xml:space="preserve">
<style type="text/css">
	.st0{fill:#F1F6FF;}
	.st1{fill:#FFFFFF;}
	.st2{fill:none;stroke:#ACB9D1;stroke-width:2;stroke-linecap:round;stroke-linejoin:round;stroke-miterlimit:10;}
</style>
<rect x="44" y="0.6" class="st0" width="384.3" height="389.8"/>
<g>
	<path class="st0" d="M134.9,123.9l0.3-30.3c0.1-11.4-9.1-20.8-20.4-20.9l0,0c-11.4-0.1-20.8,9.1-20.9,20.5l-0.4,30.7H14.9
		c-5.8,0-10.5-4.7-10.5-10.5V63.7c0-5.8,4.7-10.5,10.5-10.5h198.4c5.8,0,10.5,4.7,10.5,10.5v49.6c0,5.8-4.7,10.5-10.5,10.5
		L134.9,123.9L134.9,123.9z"/>
	<path class="st1" d="M134.9,114l0.3-30.3c0.1-11.4-9.1-20.8-20.4-20.9l0,0c-11.4-0.1-20.8,9.1-20.9,20.5L93.5,114H14.9
		c-5.8,0-10.5-4.7-10.5-10.5V53.9c0-5.8,4.7-10.5,10.5-10.5h198.4c5.8,0,10.5,4.7,10.5,10.5v49.6c0,5.8-4.7,10.5-10.5,10.5H134.9z"
		/>
	<g>
		<line class="st2" x1="79.5" y1="93.4" x2="73.7" y2="98.7"/>
		<line class="st2" x1="81.2" y1="63" x2="75.6" y2="56.3"/>
		<line class="st2" x1="68.7" y1="72.1" x2="57.2" y2="69.2"/>
		<line class="st2" x1="69.7" y1="83.4" x2="57.2" y2="85.7"/>
	</g>
	<g>
		<line class="st2" x1="148.7" y1="93.4" x2="154.5" y2="98.7"/>
		<line class="st2" x1="147" y1="63" x2="152.6" y2="56.3"/>
		<line class="st2" x1="159.5" y1="72.1" x2="171" y2="69.2"/>
		<line class="st2" x1="158.5" y1="83.4" x2="171" y2="85.7"/>
	</g>
	<path class="st0" d="M244.3,172.6c0.7-11.3-9.1-20.8-20.5-20.9c-6.9-0.1-13,3.3-16.8,8.4c-1.3-10-9.9-17.8-20.3-17.9l0,0
		c-6.9-0.1-13,3.3-16.9,8.4c-1.3-10-9.9-17.8-20.3-17.9l0,0c-5.8-0.1-11.1,2.3-15,6.2l0.6-55.2c0.1-11.4-9.1-20.8-20.4-20.9l0,0
		c-11.4-0.1-20.8,9.1-20.9,20.5l-1.3,119.3l-12.3-19.4C67,162.3,52,162.3,43.9,164.6c-9.6,6.1-12.5,18.9-6.4,28.5l65.1,102.7
		c1.8,2.8,3.7,5.4,5.8,7.8V322h114.7v-24.2h-0.9c9.4-11.3,15.6-25.4,16.7-41.7L244.3,172.6z"/>
	<path class="st2" d="M134.7,156.5l0.6-72.7c0.1-11.4-9.1-20.8-20.4-20.9l0,0C103.5,62.8,94.1,72,94,83.4l-1.3,119.3l-12.3-19.4
		c-13.2-20.9-28.2-20.9-36.3-18.6c-9.6,6.1-12.5,18.9-6.4,28.5l65.1,102.7c1.8,2.8,3.7,5.4,5.8,7.8V322h114.7v-24.2h-0.9
		c9.4-11.3,15.6-25.4,16.7-41.7l5.4-83.5c0.7-11.3-9.1-20.8-20.5-20.9c-6.9-0.1-13,3.3-16.8,8.4c-1.3-10-9.9-17.8-20.3-17.9l0,0
		c-6.9-0.1-13,3.3-16.9,8.4c-1.3-10-9.9-17.8-20.3-17.9l0,0c-5.8-0.1-11.1,2.3-15,6.2"/>
	<rect x="108.5" y="322" class="st1" width="114.7" height="27.4"/>
	<rect x="108.5" y="322" class="st2" width="114.7" height="27.4"/>
	<path class="st2" d="M223.9,88.5v25.7c0,5.8-4.7,10.5-10.5,10.5H135"/>
	<path class="st2" d="M93.5,124.8H14.9c-5.8,0-10.5-4.7-10.5-10.5V88.5"/>
	<path class="st2" d="M93.5,114H14.9c-5.8,0-10.5-4.7-10.5-10.5V53.9c0-5.8,4.7-10.5,10.5-10.5h198.4c5.8,0,10.5,4.7,10.5,10.5v49.6
		c0,5.8-4.7,10.5-10.5,10.5h-78.4"/>
</g>
</svg>
