<?xml version="1.0" encoding="utf-8"?>
<!-- Generator: Adobe Illustrator 21.1.0, SVG Export Plug-In . SVG Version: 6.00 Build 0)  -->
<svg version="1.1" id="Layer_1" xmlns="http://www.w3.org/2000/svg" xmlns:xlink="http://www.w3.org/1999/xlink" x="0px" y="0px"
	 viewBox="0 0 464 390" style="enable-background:new 0 0 464 390;" xml:space="preserve">
<style type="text/css">
	.st0{fill:#F1F6FF;}
	.st1{fill:#FFFFFF;}
	.st2{fill:none;stroke:#ACB9D1;stroke-width:2;stroke-linecap:round;stroke-linejoin:round;stroke-miterlimit:10;}
	.st3{fill:#ACB9D1;stroke:#ACB9D1;stroke-width:0.25;stroke-linecap:round;stroke-linejoin:round;stroke-miterlimit:10;}
</style>
<rect x="0.4" y="0.1" class="st0" width="384.3" height="389.8"/>
<g>
	<rect x="109.8" y="66.9" class="st0" width="288.8" height="49"/>
	<g>
		<path class="st1" d="M145.8,181.6c3.4,0,6.1,2.8,6.1,6.1v122.4c0,3.4-2.8,6.1-6.1,6.1H98.3c-3.4,0-6.1-2.8-6.1-6.1V187.8
			c0-3.4,2.8-6.1,6.1-6.1L145.8,181.6L145.8,181.6z"/>
		<rect x="109.8" y="115.9" class="st1" width="288.8" height="170.9"/>
		<path class="st0" d="M151.9,209.3l63.3-58.4L235,111c4.3-8.7,21.2-5.7,24.7,3.3c3.4,9-0.4,32.7-5.1,41.3l-18.1,32.6l66.4-4.1
			c9.7-0.6,18.9,6.6,18.9,16.2l0,0c0,9.7-6.6,18.2-16.2,18.9l0,0c3.6,2.9,6,7.3,6.4,12.2l0,0c0.7,8.8-5.3,16.6-13.7,18.5
			c4.7,2.9,7.9,7.8,8.4,13.7l0,0c0.7,8.8-5.3,16.6-13.7,18.5c4.7,2.9,7.9,7.8,8.4,13.7l0,0c0.7,9.7-6.6,18.7-16.2,18.9l-71.2,1.6
			c-25.9,0.6-48.6-13.9-61.7-33.6"/>
		<path class="st2" d="M151.9,209.3l63.3-58.4L235,111c4.3-8.7,21.2-5.7,24.7,3.3c3.4,9-0.4,32.7-5.1,41.3l-18.1,32.6l66.4-4.1
			c9.7-0.6,18.9,6.6,18.9,16.2l0,0c0,9.7-6.6,18.2-16.2,18.9l0,0c3.6,2.9,6,7.3,6.4,12.2l0,0c0.7,8.8-5.3,16.6-13.7,18.5
			c4.7,2.9,7.9,7.8,8.4,13.7l0,0c0.7,8.8-5.3,16.6-13.7,18.5c4.7,2.9,7.9,7.8,8.4,13.7l0,0c0.7,9.7-6.6,18.7-16.2,18.9l-71.2,1.6
			c-25.9,0.6-48.6-13.9-61.7-33.6"/>
		<path class="st2" d="M145.8,181.6c3.4,0,6.1,2.8,6.1,6.1v122.4c0,3.4-2.8,6.1-6.1,6.1H98.3c-3.4,0-6.1-2.8-6.1-6.1V187.8
			c0-3.4,2.8-6.1,6.1-6.1L145.8,181.6L145.8,181.6z"/>
	</g>
	<path class="st0" d="M458.8,277.6c0.9-3.9,1.4-7.9,1.4-12s-0.5-8.1-1.4-12l-15.2-1.4c-0.9-3.1-2.1-6-3.7-8.8l9.8-11.8
		c-2.1-3.4-4.6-6.5-7.5-9.4s-6.1-5.4-9.4-7.5l-11.8,9.8c-2.8-1.5-5.7-2.7-8.8-3.7l-1.4-15.2c-3.9-0.9-7.9-1.4-12-1.4
		s-8.1,0.5-12,1.4l-1.4,15.2c-3.1,0.9-6,2.1-8.8,3.7l-11.8-9.8c-3.4,2.1-6.5,4.6-9.4,7.5s-5.4,6.1-7.5,9.4l9.8,11.8
		c-1.5,2.8-2.7,5.7-3.7,8.8l-15.2,1.4c-0.9,3.9-1.4,7.9-1.4,12s0.5,8.1,1.4,12L354,279c0.9,3.1,2.1,6,3.7,8.8l-9.8,11.8
		c2.1,3.4,4.6,6.5,7.5,9.4s6.1,5.4,9.4,7.5l11.8-9.8c2.8,1.5,5.7,2.7,8.8,3.7l1.4,15.2c3.9,0.9,7.9,1.4,12,1.4s8.1-0.5,12-1.4
		l1.4-15.2c3.1-0.9,6-2.1,8.8-3.7l11.8,9.8c3.4-2.1,6.5-4.6,9.4-7.5s5.4-6.1,7.5-9.4l-9.8-11.8c1.5-2.8,2.7-5.7,3.7-8.8L458.8,277.6
		z M398.7,290c-13.4,0-24.3-10.9-24.3-24.3s10.9-24.3,24.3-24.3s24.3,10.9,24.3,24.3C423,279.1,412.1,290,398.7,290z"/>
	<g>
		<path class="st2" d="M398.7,204.2c4.1,0,8.1,0.5,12,1.4l1.4,15.2c3.1,0.9,6,2.2,8.8,3.7l11.8-9.8c3.4,2.1,6.5,4.6,9.4,7.5
			s5.4,6.1,7.5,9.4l-9.8,11.8c1.5,2.8,2.7,5.7,3.7,8.8l15.2,1.4c0.9,3.9,1.4,7.9,1.4,12s-0.5,8.1-1.4,12l-15.2,1.4
			c-0.9,3.1-2.2,6-3.7,8.8l9.8,11.8c-2.1,3.4-4.6,6.5-7.5,9.4s-6.1,5.4-9.4,7.5l-11.8-9.8c-2.8,1.5-5.7,2.7-8.8,3.7l-1.4,15.2
			c-3.9,0.9-7.9,1.4-12,1.4s-8.1-0.5-12-1.4l-1.4-15.2c-3.1-0.9-6-2.1-8.8-3.7l-11.8,9.8c-3.4-2.1-6.5-4.6-9.4-7.5s-5.4-6.1-7.5-9.4
			l9.8-11.8c-1.5-2.8-2.7-5.7-3.7-8.8l-15.2-1.4c-0.9-3.9-1.4-7.9-1.4-12s0.5-8.1,1.4-12l15.2-1.4c0.9-3.1,2.1-6,3.7-8.8l-9.8-11.8
			c2.1-3.4,4.6-6.5,7.5-9.4s6.1-5.4,9.4-7.5l11.8,9.8c2.8-1.5,5.7-2.7,8.8-3.7l1.4-15.2C390.5,204.7,394.6,204.2,398.7,204.2
			L398.7,204.2z"/>
		<path class="st2" d="M398.7,241.4c13.4,0,24.3,10.9,24.3,24.3S412.1,290,398.7,290s-24.3-10.9-24.3-24.3
			C374.4,252.2,385.2,241.4,398.7,241.4L398.7,241.4z"/>
	</g>
	<g>
		<path class="st2" d="M297.7,286.8c16.6,0,42.6,0,59.7,0 M398.7,202.9v-136H109.8l0,0v111.5 M229.9,115.9h-120 M398.7,115.9H260.1"
			/>
		<path class="st3" d="M136.5,87c2.8,0,5.2,2.5,5.2,5.6s-2.3,5.6-5.2,5.6c-2.8,0-5.2-2.5-5.2-5.6C131.4,89.5,133.7,87,136.5,87
			L136.5,87z"/>
		<path class="st3" d="M159,87c2.8,0,5.2,2.5,5.2,5.6s-2.3,5.6-5.2,5.6c-2.8,0-5.2-2.5-5.2-5.6S156.1,87,159,87L159,87z"/>
		<path class="st3" d="M181.4,87c2.8,0,5.2,2.5,5.2,5.6s-2.3,5.6-5.2,5.6c-2.8,0-5.2-2.5-5.2-5.6C176.3,89.5,178.6,87,181.4,87
			L181.4,87z"/>
	</g>
</g>
</svg>
