<?xml version="1.0" encoding="utf-8"?>
<!-- Generator: Adobe Illustrator 23.0.1, SVG Export Plug-In . SVG Version: 6.00 Build 0)  -->
<svg version="1.1" id="Слой_1" xmlns:svgjs="http://svgjs.com/svgjs"
	 xmlns="http://www.w3.org/2000/svg" xmlns:xlink="http://www.w3.org/1999/xlink" x="0px" y="0px" viewBox="0 0 338.7 64"
	 style="enable-background:new 0 0 338.7 64;" xml:space="preserve">
<style type="text/css">
	.st0{fill:#FFFFFF;}
	.st1{fill:#9CFFD2;}
</style>
<g id="SvgjsG6115" transform="translate(79.2199999988079,-195.96499633789062)" xmlns:name="main_text">
	<path class="st0" d="M11.5,215.1c1.8,0,3.5,0.3,5.1,0.8c1.6,0.6,3,1.3,4.1,2.3l-3.1,4.8c-0.8-0.5-1.7-1-2.7-1.3
		c-1-0.3-1.8-0.5-2.6-0.5c-1.6,0-2.4,0.4-2.4,1.1c0,0.3,0.1,0.5,0.3,0.7c0.2,0.2,0.6,0.4,1.3,0.7c0.7,0.3,1.8,0.6,3.3,1.1
		c2.4,0.7,4.2,1.7,5.3,2.9c1.2,1.2,1.7,2.8,1.7,4.9c0,1.6-0.5,3.1-1.5,4.3c-1,1.3-2.3,2.2-4,2.9c-1.7,0.7-3.7,1-5.9,1
		c-2.1,0-4.1-0.3-5.9-1c-1.8-0.7-3.4-1.6-4.6-2.8l4.2-4.7c0.9,0.7,1.9,1.3,2.9,1.7c1,0.4,2.1,0.6,3.1,0.6c1.7,0,2.6-0.5,2.6-1.5
		c0-0.4-0.1-0.7-0.3-1c-0.2-0.2-0.6-0.5-1.2-0.7c-0.6-0.2-1.6-0.6-3.1-1c-4.6-1.4-7-4-7-7.8c0-1.5,0.4-2.8,1.2-3.9
		c0.8-1.2,2-2.1,3.6-2.8C7.4,215.5,9.3,215.1,11.5,215.1z M37.9,240l-0.3-2.6c-1.6,2.3-4,3.5-7.1,3.5c-2.2,0-3.9-0.7-5-2
		c-1.1-1.3-1.7-3.2-1.7-5.6V216h8.9v16.1c0,0.9,0.1,1.5,0.4,1.8c0.3,0.3,0.6,0.5,1.1,0.5c0.4,0,0.9-0.2,1.3-0.5
		c0.5-0.3,0.9-0.8,1.3-1.5V216h8.9v24H37.9z M64,215.3c0.7,0,1.6,0.1,2.4,0.4l-1.4,8.6c-0.8-0.2-1.5-0.4-2.2-0.4
		c-1.3,0-2.3,0.4-2.9,1.3c-0.6,0.9-1.2,2.2-1.5,3.9V240h-8.9v-24h7.8l0.7,4.5c0.5-1.6,1.3-2.9,2.4-3.8
		C61.4,215.7,62.7,215.3,64,215.3z M72.6,240l-7.3-24h9.7l3,17.6l3.3-17.6h9l-7.1,24H72.6z M114,227.7c0,0.7-0.1,1.7-0.2,2.8H99.3
		c0.2,1.6,0.7,2.7,1.5,3.3c0.8,0.6,1.9,0.8,3.3,0.8c0.8,0,1.7-0.2,2.6-0.5c0.9-0.3,1.8-0.9,2.9-1.6l3.6,4.9
		c-2.9,2.4-6.2,3.5-9.9,3.5c-4.3,0-7.5-1.2-9.7-3.5c-2.2-2.3-3.3-5.4-3.3-9.3c0-2.4,0.5-4.6,1.4-6.5c0.9-2,2.3-3.5,4.1-4.7
		c1.8-1.2,4-1.7,6.5-1.7c2.4,0,4.4,0.5,6.2,1.5s3.1,2.4,4.1,4.3C113.5,222.8,114,225.1,114,227.7 M105.3,225.2
		c0-1.4-0.3-2.5-0.7-3.3c-0.4-0.8-1.1-1.2-2.2-1.2c-1,0-1.7,0.3-2.2,1c-0.5,0.7-0.8,1.9-1,3.7h6V225.2z M131.8,240
		c-1,3.3-2.8,5.8-5.2,7.5s-5.7,2.6-9.7,2.7l-1-6.1c2.3-0.2,4-0.6,5.1-1.3c1.1-0.6,2-1.6,2.6-2.9h-3.1l-6.8-24h9.4l3,18.5L130,216
		h9.2L131.8,240z M165.1,215.1c3.1,0,5.3,1.1,6.9,3.3c1.5,2.2,2.3,5.4,2.3,9.4c0,2.5-0.4,4.7-1.2,6.7c-0.8,2-1.9,3.5-3.4,4.6
		c-1.5,1.1-3.1,1.7-5,1.7c-2.3,0-4.1-0.8-5.6-2.4v10.8l-8.9,0.9V216h7.9l0.4,2.3c1-1.1,2-2,3.2-2.5
		C162.9,215.4,164,215.1,165.1,215.1 M161.8,234.6c2.2,0,3.4-2.2,3.4-6.5c0-1.9-0.1-3.3-0.4-4.2c-0.3-0.9-0.6-1.6-1-1.9
		c-0.4-0.3-1-0.5-1.7-0.5c-1.1,0-2.1,0.7-3,2.2v9.2c0.4,0.6,0.8,1,1.2,1.3C160.8,234.4,161.3,234.6,161.8,234.6z M185.8,232.1
		c0,1.2,0.3,1.8,1,1.8c0.3,0,0.6-0.1,1-0.2l1.6,6.3c-0.7,0.2-1.5,0.4-2.4,0.6c-0.9,0.2-1.9,0.2-2.8,0.2c-2.3,0-4.1-0.7-5.4-2
		c-1.3-1.3-1.9-3.2-1.9-5.7v-26.6l8.9-0.9V232.1z M211.4,232.2c0,0.8,0.1,1.5,0.3,1.9c0.2,0.4,0.6,0.7,1.1,0.9l-1.8,5.7
		c-1.6-0.1-2.9-0.4-3.9-0.9c-1-0.5-1.9-1.3-2.5-2.4c-1.6,2.3-4,3.5-7.2,3.5c-2.4,0-4.3-0.7-5.7-2.1c-1.5-1.4-2.2-3.3-2.2-5.5
		c0-2.7,1-4.7,3-6.1c2-1.4,4.8-2.1,8.6-2.1h1.7v-0.6c0-1.2-0.2-2-0.7-2.4c-0.5-0.4-1.4-0.6-2.7-0.6c-0.7,0-1.6,0.1-2.8,0.3
		c-1.1,0.2-2.3,0.5-3.4,0.9l-1.9-5.6c1.5-0.6,3.1-1.1,4.8-1.4c1.7-0.3,3.3-0.5,4.7-0.5c3.8,0,6.5,0.7,8.2,2.2
		c1.7,1.5,2.6,3.7,2.6,6.7V232.2 M200.1,234.7c0.5,0,1-0.1,1.5-0.4c0.5-0.3,0.8-0.6,1.1-1v-3.5h-0.9c-1.3,0-2.2,0.2-2.8,0.7
		c-0.6,0.4-0.9,1.1-0.9,2.1c0,0.7,0.2,1.2,0.5,1.6C199,234.5,199.5,234.7,200.1,234.7z M226.7,215.1c3.4,0,6.3,1.1,8.7,3.2l-3.7,5.2
		c-1.4-1.1-2.8-1.7-4.2-1.7c-1.4,0-2.4,0.5-3,1.4c-0.7,1-1,2.6-1,4.9c0,2.2,0.3,3.8,1,4.6c0.7,0.8,1.7,1.2,3,1.2
		c0.7,0,1.4-0.1,2-0.4s1.3-0.7,2.1-1.3l3.9,5.6c-2.4,2-5.3,3-8.5,3c-2.6,0-4.9-0.5-6.8-1.6c-1.9-1.1-3.4-2.6-4.4-4.5
		c-1-1.9-1.5-4.1-1.5-6.6c0-2.5,0.5-4.8,1.6-6.7c1-2,2.5-3.5,4.4-4.7C222.1,215.7,224.3,215.1,226.7,215.1z M259.5,227.7
		c0,0.7-0.1,1.7-0.2,2.8h-14.5c0.2,1.6,0.7,2.7,1.5,3.3c0.8,0.6,1.9,0.8,3.3,0.8c0.8,0,1.7-0.2,2.6-0.5c0.9-0.3,1.8-0.9,2.9-1.6
		l3.6,4.9c-2.9,2.4-6.2,3.5-9.9,3.5c-4.3,0-7.5-1.2-9.7-3.5c-2.2-2.3-3.3-5.4-3.3-9.3c0-2.4,0.5-4.6,1.4-6.5c0.9-2,2.3-3.5,4.1-4.7
		c1.8-1.2,4-1.7,6.5-1.7c2.4,0,4.4,0.5,6.2,1.5c1.8,1,3.1,2.4,4.1,4.3C259,222.8,259.5,225.1,259.5,227.7 M250.7,225.2
		c0-1.4-0.3-2.5-0.7-3.3c-0.4-0.8-1.1-1.2-2.2-1.2c-1,0-1.7,0.3-2.2,1c-0.5,0.7-0.8,1.9-1,3.7h6V225.2z"/>
</g>
<g id="SvgjsG6116" transform="translate(-8,-8) scale(0.8)" xmlns:name="symbol_mainfill">
	<path class="st0" d="M80,10H20c-5.5,0-10,4.5-10,10v60c0,5.5,4.5,10,10,10h60c5.5,0,10-4.5,10-10V20C90,14.5,85.5,10,80,10z M80,80
		H20V20h60V80z"/>
	<polygon class="st1" points="72.1,40 65,32.9 45,52.9 35,42.9 27.9,50 45,67.1 	"/>
</g>
</svg>
