<?xml version="1.0" encoding="utf-8"?>
<!-- Generator: Adobe Illustrator 21.1.0, SVG Export Plug-In . SVG Version: 6.00 Build 0)  -->
<svg version="1.1" id="Layer_1" xmlns="http://www.w3.org/2000/svg" xmlns:xlink="http://www.w3.org/1999/xlink" x="0px" y="0px"
	 viewBox="0 0 1362 687" style="enable-background:new 0 0 1362 687;" xml:space="preserve">
<style type="text/css">
	.st0{fill:none;}
	.st1{fill:#D1DDF2;}
	.st2{fill:#E3EDFF;}
	.st3{fill:#FFFFFF;}
	.st4{fill:#FBFCFF;}
	.st5{fill:#E4EDFF;}
	.st6{fill:#F3F7FF;}
	.st7{fill:url(#SVGID_1_);}
	.st8{fill:url(#SVGID_2_);}
	.st9{fill:url(#SVGID_3_);}
	.st10{fill:url(#SVGID_4_);}
	.st11{fill:url(#SVGID_5_);}
	.st12{fill:url(#SVGID_6_);}
	.st13{fill:url(#SVGID_7_);}
	.st14{fill:url(#SVGID_8_);}
	.st15{fill:url(#SVGID_9_);}
	.st16{fill:url(#SVGID_10_);}
	.st17{fill:url(#SVGID_11_);}
	.st18{fill:url(#SVGID_12_);}
	.st19{fill:url(#SVGID_13_);}
	.st20{fill:url(#SVGID_14_);}
	.st21{opacity:0.4;fill:#E3EDFF;}
	.st22{fill:#F6F9FF;}
	.st23{fill:#D1D1D1;}
</style>
<g>
	<path class="st0" d="M1072.7,275.5c0-0.1,0.1-0.3,0.1-0.4C1072.7,275.2,1072.7,275.4,1072.7,275.5z"/>
	<path class="st0" d="M1072.9,274.5c0-0.2,0-0.3,0-0.5C1072.9,274.2,1072.9,274.4,1072.9,274.5z"/>
	<path class="st0" d="M1067.7,280.9c0.2-0.1,0.3-0.2,0.5-0.3C1068.1,280.7,1067.9,280.8,1067.7,280.9l-1.4,0.8l0,0L1067.7,280.9z"/>
	<polygon class="st0" points="884.3,403.1 884.3,403.1 886.6,404.9 886.6,404.9 	"/>
	<polygon class="st0" points="973.4,598.1 926.9,634.2 926.9,634.2 915.8,642.9 854.4,618.7 854.4,618.7 915.7,642.9 915.7,642.9 
		1004.5,573.9 973.4,598.1 	"/>
	<path class="st0" d="M1071.2,278c-0.1,0.1-0.2,0.3-0.3,0.4C1071,278.2,1071.1,278.1,1071.2,278z"/>
	<polygon class="st0" points="1020.9,215.5 1179.5,307.1 1179.5,307.1 1020.9,215.5 	"/>
	<path class="st0" d="M13,387.6c0,0,0-0.1-0.1-0.1C13,387.5,13,387.5,13,387.6C13,387.5,13,387.6,13,387.6z"/>
	<path class="st0" d="M1069,280.1c0.2-0.1,0.3-0.2,0.4-0.3C1069.2,279.9,1069.1,280,1069,280.1z"/>
	<path class="st0" d="M1072.3,276.5c0.1-0.1,0.1-0.3,0.2-0.4C1072.4,276.2,1072.3,276.3,1072.3,276.5z"/>
	<path class="st0" d="M1071.7,277.4c0.1-0.1,0.2-0.3,0.3-0.4C1071.8,277.2,1071.8,277.3,1071.7,277.4z"/>
	<path class="st0" d="M1070,279.2c0.1-0.1,0.2-0.2,0.4-0.4C1070.3,279,1070.2,279.1,1070,279.2z"/>
	<polygon class="st0" points="705,559.8 655.3,540.2 705,559.8 	"/>
	<polygon class="st0" points="956.7,507.6 923.5,520.6 819.7,440.4 819.7,440.4 923.5,520.7 923.5,520.6 961.2,505.8 961.2,505.8 	
		"/>
	<polygon class="st0" points="811.7,469.2 811.7,467 811.7,460.3 811.7,458.1 811.7,451.4 811.7,449.2 811.7,445 757.3,476.4 
		868.1,520.1 811.7,475.5 	"/>
	<polygon class="st0" points="850.5,98.5 937,31.3 850.5,98.4 	"/>
	<polygon class="st0" points="1135.3,396.1 1135.3,396.1 1121.5,401.5 1121.5,401.5 	"/>
	<polygon class="st1" points="1179.5,307.1 1179.5,307.1 1179.5,307.1 1179.5,312 1361.3,207 1361.3,202.2 1296.5,239.6 	"/>
	<path class="st2" d="M1020.9,215.5l158.6,91.6l0,0l117-67.5l64.8-37.4L1129.6,68.4c-12.1-7-26.9-7-39,0l-81.9,47.3l-10.1-5.8
		c-5.4-3.1-11.9-3.1-17.3,0l-71.8,41.4L1020.9,215.5L1020.9,215.5z M1103,134.3c4.4-2.2,9.9-4.1,16.6-4.6l7.8,12.1
		c-14.8,3-13.9,9.4-2.2,16.2l3.2,1.9l15.3-8.8l15.2,8.9l-15.3,8.8l57.2,33.3l-18.3,10.5l-57.2-33.3l-10,5.8l-15.2-8.9l10-5.8
		l-3.2-1.9C1087.5,157.1,1082.4,144.6,1103,134.3z"/>
	<polygon class="st2" points="909.3,151.3 909.3,151.3 909.3,151.3 	"/>
	<polygon class="st1" points="1020.9,215.5 909.5,151.2 909.3,151.1 909.3,151.3 909.3,151.3 909.3,156 1179.5,312 1179.5,307.1 	
		"/>
	<path class="st3" d="M1107,168.5l3.2,1.9l-10,5.8l15.2,8.9l10-5.8l57.2,33.3l18.3-10.5l-57.2-33.3l15.3-8.8l-15.2-8.9l-15.3,8.8
		l-3.2-1.9c-11.7-6.8-12.6-13.2,2.2-16.2l-7.8-12.1c-6.7,0.5-12.2,2.4-16.6,4.6C1082.4,144.6,1087.5,157.1,1107,168.5z"/>
	<polygon class="st1" points="712.9,60 850.5,114.4 850.5,107.8 850.5,107.8 677.6,39.5 	"/>
	<polygon class="st1" points="850.5,140 850.5,134.2 850.5,134.2 819.3,121.9 	"/>
	<polygon class="st1" points="760.2,87.5 850.5,123.2 850.5,116.6 850.5,116.6 724.9,66.9 	"/>
	<path class="st1" d="M641,27.7c1.5-0.4,3.1-0.7,4.7-0.8l-3.8-1.5C641.6,26.2,641.3,26.9,641,27.7z"/>
	<polygon class="st1" points="807.4,114.9 850.5,132 850.5,125.4 850.5,125.4 772.1,94.4 	"/>
	<path class="st1" d="M642.5,23.4l8.9,3.5c3.5,0.4,6.8,1.3,9.5,2.9l4.8,2.8l184.9,73v-7.1v-0.1L643.2,16.7l0,1.4
		C643.2,19.8,643,21.6,642.5,23.4z"/>
	<path class="st4" d="M679.4,15.4l9.5-4.6c5.3-2.7,11.2-3.7,17-3l14.4,1.8c0,0,0-0.1,0-0.1c0-4.8,3.9-8.6,8.6-8.6
		c0.9,0,1.7,0.1,2.6,0.4c1.7,0,3.4-0.5,4.9-1.2h-71.8L687,8.6l-3.3,2.6L654.8,0h-11.6l0,1.4L679.4,15.4z"/>
	<path class="st4" d="M799.2,5.2L799.2,5.2l-0.1,0.3c-0.5,1-1.1,2-1.8,2.9l-8.1,13.1c-2,3.3-6.3,4.3-9.6,2.2l-5.7-3.5l-5.2,4.2
		c0.9,1.1,1.7,2.3,2.4,3.6c2.9,5.2,4.2,11.1,3.7,17.1l-1,6.9l80.9,31.4L915.8,35L825.6,0h-24.9c-0.1,0.5-0.2,1-0.3,1.5
		C800.2,2.8,799.7,4.1,799.2,5.2z M837.6,71.1l-51-19.8l2.7-2.7l51.6,19.9L837.6,71.1z M838.4,9.6l51.6,19.9l-3.3,2.6l-51-19.8
		L838.4,9.6z M841.9,28.9c8.8,0,15.9,4.7,15.9,10.6c0,5.8-7.1,10.6-15.9,10.6S826,45.3,826,39.5C826,33.7,833.2,28.9,841.9,28.9z"/>
	<polygon class="st4" points="925.5,29.9 925.8,30 925.8,30 925.8,30 924.6,30.9 853.1,87.2 849.4,90.2 772.5,60.4 772.5,60.4 
		712.1,37 643.2,10.3 643.2,16.7 850.5,98.4 937,31.3 857.8,0 848.5,0 	"/>
	<polygon class="st5" points="850.5,132 850.5,132 937,63.7 937,57.1 850.5,125.4 	"/>
	<polygon class="st5" points="850.5,123.2 850.5,123.2 937,54.9 937,48.3 850.5,116.6 	"/>
	<polygon class="st5" points="850.5,114.4 850.5,114.4 937,46.1 937,39.5 850.5,107.8 	"/>
	<polygon class="st5" points="850.5,105.6 850.5,105.6 937,37.3 937,31.3 850.5,98.5 	"/>
	<polygon class="st5" points="850.5,140 851.5,140.5 937,72.2 937,65.9 850.5,134.2 	"/>
	<path class="st2" d="M641.9,25.4l3.8,1.5c1.9-0.2,3.8-0.2,5.7,0l-8.9-3.5C642.3,24.1,642.1,24.7,641.9,25.4z"/>
	<polygon class="st2" points="677.6,39.5 850.5,107.8 850.5,105.6 850.5,105.6 665.7,32.6 	"/>
	<polygon class="st2" points="724.9,66.9 850.5,116.6 850.5,114.4 850.5,114.4 712.9,60 	"/>
	<polygon class="st2" points="772.1,94.4 850.5,125.4 850.5,123.2 850.5,123.2 760.2,87.5 	"/>
	<polygon class="st2" points="819.3,121.9 850.5,134.2 850.5,132 850.5,132 807.4,114.9 	"/>
	<polygon class="st1" points="850.5,107.8 850.5,107.8 937,39.5 937,37.3 850.5,105.6 	"/>
	<polygon class="st1" points="850.5,116.6 850.5,116.6 937,48.3 937,46.1 850.5,114.4 	"/>
	<polygon class="st1" points="850.5,125.4 850.5,125.4 937,57.1 937,54.9 850.5,123.2 	"/>
	<polygon class="st1" points="850.5,134.2 850.5,134.2 937,65.9 937,63.7 850.5,132 	"/>
	<polygon class="st1" points="679.4,15.4 643.2,1.4 643.2,4.2 663.1,11.6 659.8,14.2 643.2,8 643.2,10.3 712.1,37 669.3,20.4 	"/>
	<path class="st1" d="M848.8,87.9l5.8-4.6L773.7,52l-1.2,8.4l76.9,29.8l3.7-3l-0.9,0.7L848.8,87.9z M814.4,73.8l-23.8-9l2.7-2.7
		l24.5,9.1L814.4,73.8z"/>
	<polygon class="st1" points="925.8,30 925.8,30 924.6,30.9 	"/>
	<path class="st1" d="M923.2,29.1l2.3,0.8L848.5,0h-22.9l90.2,35L923.2,29.1z M861.5,7.2l24.5,9.1l-3.3,2.6l-23.8-9L861.5,7.2z"/>
	<polygon class="st1" points="915.8,35 854.6,83.3 848.8,87.9 852.2,87.9 853.1,87.2 924.6,30.9 925.8,30 925.8,30 925.5,29.9 
		923.2,29.1 	"/>
	<ellipse class="st1" cx="841.9" cy="39.5" rx="15.9" ry="10.6"/>
	<polygon class="st1" points="786.7,51.4 837.6,71.1 840.9,68.5 789.3,48.7 	"/>
	<polygon class="st1" points="889.9,29.5 838.4,9.6 835.7,12.3 886.6,32.1 	"/>
	<polygon class="st1" points="687,8.6 664.6,0 654.8,0 683.7,11.2 	"/>
	<polygon class="st6" points="663.1,11.6 643.2,4.2 643.2,8 659.8,14.2 	"/>
	<polygon class="st6" points="882.6,18.9 885.9,16.2 861.5,7.2 858.8,9.9 	"/>
	<polygon class="st6" points="790.5,64.8 814.4,73.8 817.7,71.2 793.2,62.1 	"/>
	<path class="st1" d="M729,0.8c-4.8,0-8.6,3.9-8.6,8.6c0,0,0,0.1,0,0.1l-14.4-1.8c-5.8-0.7-11.8,0.3-17,3l-9.5,4.6l-10.1,5L712.1,37
		l60.5,23.4v0l1.2-8.4l1-6.9c0.5-5.9-0.8-11.9-3.7-17.1c-0.7-1.3-1.5-2.5-2.4-3.6l5.2-4.2l5.7,3.5c3.3,2,7.6,1,9.6-2.2l8.1-13.1
		c0.7-0.9,1.3-1.9,1.8-2.9l0.2-0.3l0,0c0.5-1.2,1-2.4,1.2-3.7c0.1-0.5,0.2-1,0.3-1.5h-64.3c-1.5,0.8-3.2,1.2-4.9,1.2
		C730.7,1,729.9,0.8,729,0.8z"/>
	<path class="st2" d="M13,387.6C13,387.6,13,387.5,13,387.6c0-0.1,0-0.1-0.1-0.1c-0.6-1.3-0.9-3-0.9-4.9L10.9,0H1.5l1.1,377
		c0,0,0,0,0,0c0,0.2,0,0.4,0,0.6c0,0.2,0,0.4,0,0.6c0,0.2,0,0.4,0.1,0.6c0,0.2,0.1,0.4,0.1,0.6c0,0.1,0,0.2,0.1,0.3c0,0,0,0.1,0,0.1
		c0,0.1,0,0.2,0.1,0.3c0.1,0.2,0.1,0.4,0.2,0.6c0.1,0.2,0.1,0.4,0.2,0.7c0.1,0.2,0.2,0.4,0.3,0.7c0,0,0,0,0,0c0,0,0,0,0,0
		c0.1,0.3,0.3,0.6,0.5,0.9c0.1,0.1,0.2,0.1,0.2,0.2c0.6,0.8,1.2,1.5,2,1.9l9.4,5.5c-0.2-0.1-0.4-0.3-0.6-0.4
		C14.3,389.6,13.6,388.7,13,387.6z"/>
	<path class="st3" d="M25.3,386.7c-0.1-2.7,1.6-5.5,5.2-7.5L635.7,29.8c1.6-0.9,3.4-1.6,5.3-2.1c0.3-0.8,0.6-1.5,0.9-2.3
		c0.2-0.7,0.4-1.3,0.6-2c0.5-1.8,0.7-3.6,0.7-5.3l0-1.4l0-6.4l0-2.3l0-3.7l0-2.9l0-1.4H628l0.1,18.1c0,2.6-2.8,7.3-5,8.7L31.7,368.2
		c-2,1.2-4.5-0.3-4.5-2.6L26.1,0H10.9L12,382.5c0,1.9,0.3,3.6,0.9,4.9c0,0,0,0.1,0.1,0.1c0.5,1.1,1.2,2,2.1,2.6
		c2.3,1.7,5.8,1.7,9.6-0.5l0.6-0.3l0-2.9C25.3,386.6,25.3,386.6,25.3,386.7z"/>
	<path class="st5" d="M31.7,368.2L623,26.8c2.3-1.3,5.1-6.1,5-8.7L628,0H428.4v59c0,3-2.4,6.9-5.4,8.6l-160.1,93.1
		c-3,1.7-5.4,0.7-5.4-2.3V0H26.1l1,365.6C27.2,367.9,29.7,369.3,31.7,368.2z"/>
	
		<linearGradient id="SVGID_1_" gradientUnits="userSpaceOnUse" x1="5624.5308" y1="281.3698" x2="6250.7456" y2="646.1166" gradientTransform="matrix(-1 0 0 1 6691.1621 0)">
		<stop  offset="0" style="stop-color:#FFFFFF"/>
		<stop  offset="1" style="stop-color:#D6D6D6"/>
	</linearGradient>
	<polygon class="st7" points="1066.3,281.7 1066.3,281.7 1014.8,311.4 1014.8,311.4 	"/>
	
		<linearGradient id="SVGID_2_" gradientUnits="userSpaceOnUse" x1="6503.8208" y1="310.5373" x2="6827.1689" y2="498.8755" gradientTransform="matrix(-1 0 0 1 6691.1621 0)">
		<stop  offset="0" style="stop-color:#FFFFFF"/>
		<stop  offset="1" style="stop-color:#D6D6D6"/>
	</linearGradient>
	<path class="st8" d="M25.6,404.6c0,0.1,0,0.1,0.1,0.2C25.7,404.8,25.6,404.7,25.6,404.6C25.6,404.7,25.6,404.6,25.6,404.6z"/>
	
		<linearGradient id="SVGID_3_" gradientUnits="userSpaceOnUse" x1="6591.8647" y1="364.31" x2="6737.2041" y2="448.9648" gradientTransform="matrix(-1 0 0 1 6691.1621 0)">
		<stop  offset="0" style="stop-color:#FFFFFF"/>
		<stop  offset="1" style="stop-color:#D6D6D6"/>
	</linearGradient>
	<path class="st9" d="M26.5,406.5c0.1,0.1,0.1,0.2,0.2,0.3C26.7,406.7,26.6,406.6,26.5,406.5C26.5,406.5,26.5,406.5,26.5,406.5z"/>
	
		<linearGradient id="SVGID_4_" gradientUnits="userSpaceOnUse" x1="5619.1211" y1="290.6571" x2="6245.3359" y2="655.4039" gradientTransform="matrix(-1 0 0 1 6691.1621 0)">
		<stop  offset="0" style="stop-color:#FFFFFF"/>
		<stop  offset="1" style="stop-color:#D6D6D6"/>
	</linearGradient>
	<path class="st10" d="M1073,290.4L1073,290.4c0-0.2,0-0.4,0-0.5v0C1073,290,1073,290.2,1073,290.4z"/>
	
		<linearGradient id="SVGID_5_" gradientUnits="userSpaceOnUse" x1="5622.7583" y1="284.4124" x2="6248.9731" y2="649.1592" gradientTransform="matrix(-1 0 0 1 6691.1621 0)">
		<stop  offset="0" style="stop-color:#FFFFFF"/>
		<stop  offset="1" style="stop-color:#D6D6D6"/>
	</linearGradient>
	<path class="st11" d="M442.3,648.5c-0.2-0.1-0.4-0.1-0.6-0.1c0.8,0.3,1.7,0.5,2.6,0.6c-0.1,0-0.1,0-0.2,0
		C443.5,648.9,442.9,648.7,442.3,648.5z"/>
	
		<linearGradient id="SVGID_6_" gradientUnits="userSpaceOnUse" x1="5623.8413" y1="282.5527" x2="6250.0566" y2="647.2995" gradientTransform="matrix(-1 0 0 1 6691.1621 0)">
		<stop  offset="0" style="stop-color:#FFFFFF"/>
		<stop  offset="1" style="stop-color:#D6D6D6"/>
	</linearGradient>
	<path class="st12" d="M439.3,647.5c0.6,0.2,1.2,0.5,1.8,0.7c0,0-0.1,0-0.1,0C440.4,647.9,439.8,647.7,439.3,647.5z"/>
	
		<linearGradient id="SVGID_7_" gradientUnits="userSpaceOnUse" x1="5831.8472" y1="-74.5611" x2="6458.062" y2="290.1857" gradientTransform="matrix(-1 0 0 1 6691.1621 0)">
		<stop  offset="0" style="stop-color:#FFFFFF"/>
		<stop  offset="1" style="stop-color:#D6D6D6"/>
	</linearGradient>
	<path class="st13" d="M28.2,408.4c0.5,0.4,1,0.8,1.7,1.2c-0.1-0.1-0.3-0.2-0.4-0.3C29,409,28.6,408.7,28.2,408.4z"/>
	
		<linearGradient id="SVGID_8_" gradientUnits="userSpaceOnUse" x1="5625.3838" y1="279.905" x2="6251.5986" y2="644.6519" gradientTransform="matrix(-1 0 0 1 6691.1621 0)">
		<stop  offset="0" style="stop-color:#FFFFFF"/>
		<stop  offset="1" style="stop-color:#D6D6D6"/>
	</linearGradient>
	<polygon class="st14" points="851.1,406 462.6,630.3 851.1,406 	"/>
	
		<linearGradient id="SVGID_9_" gradientUnits="userSpaceOnUse" x1="5619.2104" y1="290.5032" x2="6245.4258" y2="655.25" gradientTransform="matrix(-1 0 0 1 6691.1621 0)">
		<stop  offset="0" style="stop-color:#FFFFFF"/>
		<stop  offset="1" style="stop-color:#D6D6D6"/>
	</linearGradient>
	<path class="st15" d="M456.8,648.8c-0.1,0-0.1,0-0.2,0C456.7,648.8,456.8,648.8,456.8,648.8z"/>
	
		<linearGradient id="SVGID_10_" gradientUnits="userSpaceOnUse" x1="5618.9424" y1="290.9639" x2="6245.1572" y2="655.7108" gradientTransform="matrix(-1 0 0 1 6691.1621 0)">
		<stop  offset="0" style="stop-color:#FFFFFF"/>
		<stop  offset="1" style="stop-color:#D6D6D6"/>
	</linearGradient>
	<path class="st16" d="M459.4,648c-0.4,0.1-0.8,0.3-1.2,0.4C458.6,648.3,459,648.2,459.4,648z"/>
	
		<linearGradient id="SVGID_11_" gradientUnits="userSpaceOnUse" x1="6234.4023" y1="648.2003" x2="6237.7437" y2="650.1465" gradientTransform="matrix(-1 0 0 1 6691.1621 0)">
		<stop  offset="0" style="stop-color:#FFFFFF"/>
		<stop  offset="1" style="stop-color:#D6D6D6"/>
	</linearGradient>
	<path class="st17" d="M455.1,649.2C455.1,649.2,455.1,649.2,455.1,649.2C455.1,649.2,455.1,649.2,455.1,649.2z"/>
	
		<linearGradient id="SVGID_12_" gradientUnits="userSpaceOnUse" x1="5835.0879" y1="-80.1251" x2="6461.3027" y2="284.6217" gradientTransform="matrix(-1 0 0 1 6691.1621 0)">
		<stop  offset="0" style="stop-color:#FFFFFF"/>
		<stop  offset="1" style="stop-color:#D6D6D6"/>
	</linearGradient>
	<path class="st18" d="M25.4,403.8c0-0.1,0-0.2,0-0.3C25.4,403.7,25.4,403.8,25.4,403.8z"/>
	
		<linearGradient id="SVGID_13_" gradientUnits="userSpaceOnUse" x1="6602.6846" y1="369.3296" x2="6727.5269" y2="442.0457" gradientTransform="matrix(-1 0 0 1 6691.1621 0)">
		<stop  offset="0" style="stop-color:#FFFFFF"/>
		<stop  offset="1" style="stop-color:#D6D6D6"/>
	</linearGradient>
	<path class="st19" d="M26.1,405.8c0-0.1-0.1-0.1-0.1-0.2C26,405.7,26.1,405.7,26.1,405.8z"/>
	
		<linearGradient id="SVGID_14_" gradientUnits="userSpaceOnUse" x1="5624.5376" y1="281.3579" x2="6250.7524" y2="646.1047" gradientTransform="matrix(-1 0 0 1 6691.1621 0)">
		<stop  offset="0" style="stop-color:#FFFFFF"/>
		<stop  offset="1" style="stop-color:#D6D6D6"/>
	</linearGradient>
	<path class="st20" d="M439,647.4c-0.3-0.1-0.6-0.3-0.9-0.4C438.4,647.1,438.7,647.2,439,647.4z"/>
	<path class="st2" d="M1073,274.1c0,0.2,0,0.3,0,0.5c0,0.2-0.1,0.4-0.1,0.5c0,0.1-0.1,0.3-0.1,0.4c-0.1,0.2-0.1,0.4-0.2,0.5
		c-0.1,0.1-0.1,0.3-0.2,0.4c-0.1,0.2-0.2,0.4-0.3,0.5c-0.1,0.1-0.2,0.3-0.3,0.4c-0.1,0.2-0.3,0.4-0.4,0.5c-0.1,0.1-0.2,0.3-0.3,0.4
		c-0.2,0.2-0.4,0.4-0.5,0.5c-0.1,0.1-0.2,0.2-0.4,0.4c-0.2,0.2-0.4,0.3-0.6,0.5c-0.1,0.1-0.3,0.2-0.4,0.3c-0.2,0.2-0.5,0.3-0.7,0.5
		c-0.2,0.1-0.3,0.2-0.5,0.3l-1.4,0.8l-51.5,29.7v1.6v0.2l58.2-22.8c0-0.2,0-0.3,0-0.5v0l0-16.3c0,0,0,0,0,0
		C1073,273.7,1073,273.9,1073,274.1z"/>
	<polygon class="st2" points="873.7,394.9 873.7,394.9 884.3,403.1 884.3,403.1 	"/>
	<polygon class="st2" points="819.7,440.4 819.7,440.4 811.7,434.2 	"/>
	<path class="st2" d="M712.9,495.4L712.9,495.4l31.1-24.2l13.3,5.2l54.4-31.4v-2.5v-2.2v-6.1l39.4-15.5l-0.1-0.1V406L462.6,630.3
		c-7,4-18.3,4-25.2,0L30.5,393.8c-3.4-2-5.1-4.5-5.2-7.1c0-0.1,0-0.1,0-0.2l0,2.9l0,13.4c0,0.1,0,0.1,0,0.2c0,0.2,0,0.4,0.1,0.6
		c0,0.1,0,0.2,0,0.3c0,0.1,0,0.1,0,0.2c0,0.2,0.1,0.4,0.2,0.6c0,0,0,0,0,0.1c0,0,0,0.1,0,0.1c0,0,0,0,0,0.1c0,0.1,0,0.1,0,0.2
		c0.1,0.2,0.2,0.4,0.3,0.6c0,0.1,0.1,0.1,0.1,0.2c0,0.1,0.1,0.2,0.1,0.3c0.1,0.2,0.2,0.3,0.3,0.5c0,0,0,0,0,0
		c0.1,0.1,0.1,0.2,0.2,0.2c0,0,0,0,0,0c0.1,0.1,0.1,0.2,0.2,0.3c0.3,0.4,0.7,0.8,1.1,1.2c0,0,0.1,0.1,0.1,0.1c0,0,0,0,0,0
		c0.4,0.3,0.8,0.6,1.2,0.9c0.2,0.1,0.3,0.2,0.4,0.3c0.1,0.1,0.3,0.2,0.5,0.3c0.1,0,0.1,0.1,0.2,0.1l406.9,236.5
		c0.2,0.1,0.5,0.2,0.7,0.3c0.3,0.2,0.6,0.3,0.9,0.4c0.1,0,0.2,0.1,0.3,0.1c0.5,0.2,1.1,0.4,1.7,0.6c0,0,0.1,0,0.1,0
		c0.1,0,0.2,0.1,0.3,0.1c0.1,0,0.2,0.1,0.3,0.1c0.2,0,0.4,0.1,0.6,0.1c0.6,0.2,1.2,0.3,1.8,0.4c0.1,0,0.1,0,0.2,0
		c0.2,0,0.3,0.1,0.5,0.1c0.5,0.1,1,0.1,1.5,0.2c0.2,0,0.4,0.1,0.5,0.1c0.1,0,0.2,0,0.2,0c0.7,0.1,1.3,0.1,2,0.1c0.3,0,0.5,0,0.8,0
		c0.2,0,0.3,0,0.5,0c0.2,0,0.4,0,0.6,0c0.6,0,1.2,0,1.8-0.1c0.2,0,0.4,0,0.6-0.1c0.1,0,0.3,0,0.4,0c0.2,0,0.4,0,0.7-0.1
		c0.3,0,0.5-0.1,0.8-0.1c0,0,0,0,0,0c0.3-0.1,0.6-0.1,1-0.2c0.2,0,0.3-0.1,0.4-0.1c0.1,0,0.1,0,0.2,0c0.1,0,0.1,0,0.2,0
		c0.1,0,0.1,0,0.2,0c0.3-0.1,0.6-0.1,0.9-0.2c0.1,0,0.2-0.1,0.3-0.1c0.4-0.1,0.8-0.3,1.2-0.4c0,0,0,0,0,0c0.1-0.1,0.3-0.1,0.4-0.2
		c0,0,0.1,0,0.1,0c0.9-0.4,1.8-0.8,2.6-1.2l216.8-125.2L712.9,495.4z"/>
	<path class="st4" d="M819.3,121.9l-11.9-6.9l-35.3-20.5l-11.9-6.9l-35.3-20.5L712.9,60l-35.3-20.5l-11.9-6.9l-4.8-2.8
		c-2.7-1.6-6-2.5-9.5-2.9c-1.9-0.2-3.8-0.2-5.7,0c-1.6,0.1-3.2,0.4-4.7,0.8c-1.9,0.5-3.7,1.2-5.3,2.1L30.5,379.2
		c-3.6,2.1-5.3,4.8-5.2,7.5c0.1,2.6,1.8,5.1,5.2,7.1l406.9,236.5c6.9,4,18.2,4,25.2,0L851.1,406v-2L761.3,440v0.1l-15.6-12.5
		L654.9,480l-105.1-60.7l125-72.2v0v-2.2v-6.6v-2.2v-0.6L338.4,529.7L103.9,394.3L665.6,70L900,205.4L704.2,318.5l224.1-88.5
		l86.5,67.3v7v2.2v5l51.5-29.7l1.4-0.8c0.2-0.1,0.3-0.2,0.5-0.3c0.2-0.2,0.5-0.3,0.7-0.5c0.2-0.1,0.3-0.2,0.4-0.3
		c0.2-0.2,0.4-0.3,0.6-0.5c0.1-0.1,0.2-0.2,0.4-0.4c0.2-0.2,0.4-0.3,0.5-0.5c0.1-0.1,0.2-0.3,0.3-0.4c0.1-0.2,0.3-0.4,0.4-0.5
		c0.1-0.1,0.2-0.3,0.3-0.4c0.1-0.2,0.2-0.4,0.3-0.5c0.1-0.1,0.1-0.3,0.2-0.4c0.1-0.2,0.2-0.4,0.2-0.5c0-0.1,0.1-0.3,0.1-0.4
		c0-0.2,0.1-0.4,0.1-0.5c0-0.2,0-0.3,0-0.5c0-0.2,0-0.4,0-0.5c0-2.6-1.7-5.3-5.1-7.3L851.5,140.5l-1-0.6L819.3,121.9z"/>
	<polygon class="st4" points="678.8,333.1 678.8,333.1 687.4,339.8 687.4,339.8 	"/>
	<path class="st2" d="M704.2,318.5L900,205.4L665.6,70L103.9,394.3l234.5,135.4l336.4-194.2v-5.4L704.2,318.5z M773.5,269.9
		l-49.1,28.3c-2.4,1.4-6.5,1.2-9.3-0.4l-24.4-14.1c-2.7-1.6-3-4-0.7-5.4l49.1-28.3c2.4-1.4,6.5-1.2,9.3,0.4l24.4,14.1
		C775.5,266.1,775.8,268.5,773.5,269.9z M630.3,206.3c2.7,1.6,3,4,0.7,5.4l-21.1,12.2c-2.4,1.4-6.5,1.2-9.3-0.4l-24.4-14.1
		c-2.7-1.6-3-4-0.7-5.4l21.1-12.2c2.4-1.4,6.5-1.2,9.3,0.4L630.3,206.3z M610.6,183.8l21.1-12.2c2.4-1.4,6.5-1.2,9.3,0.4l24.4,14.1
		c2.7,1.6,3,4,0.7,5.4L645,203.6c-2.4,1.4-6.5,1.2-9.3-0.4l-24.4-14.1C608.6,187.5,608.3,185.1,610.6,183.8z M595.2,226.6
		c2.7,1.6,3,4,0.7,5.4l-21.1,12.2c-2.4,1.4-6.5,1.2-9.3-0.4L541,229.7c-2.7-1.6-3-4-0.7-5.4l21.1-12.2c2.4-1.4,6.5-1.2,9.3,0.4
		L595.2,226.6z M560,246.9c2.7,1.6,3,4,0.7,5.4l-21.1,12.2c-2.4,1.4-6.5,1.2-9.3-0.4L505.9,250c-2.7-1.6-3-4-0.7-5.4l21.1-12.2
		c2.4-1.4,6.5-1.2,9.3,0.4L560,246.9z M524.9,267.2c2.7,1.6,3,4,0.7,5.4l-21.1,12.2c-2.4,1.4-6.5,1.2-9.3-0.4l-24.4-14.1
		c-2.7-1.6-3-4-0.7-5.4l21.1-12.2c2.4-1.4,6.5-1.2,9.3,0.4L524.9,267.2z M489.8,287.4c2.7,1.6,3,4,0.7,5.4L469.3,305
		c-2.4,1.4-6.5,1.2-9.3-0.4l-24.4-14.1c-2.7-1.6-3-4-0.7-5.4l21.1-12.2c2.4-1.4,6.5-1.2,9.3,0.4L489.8,287.4z M454.6,307.7
		c2.7,1.6,3,4,0.7,5.4l-21.1,12.2c-2.4,1.4-6.5,1.2-9.3-0.4l-24.4-14.1c-2.7-1.6-3-4-0.7-5.4l21.1-12.2c2.4-1.4,6.5-1.2,9.3,0.4
		L454.6,307.7z M419.5,328c2.7,1.6,3,4,0.7,5.4L399,345.6c-2.4,1.4-6.5,1.2-9.3-0.4l-24.4-14.1c-2.7-1.6-3-4-0.7-5.4l21.1-12.2
		c2.4-1.4,6.5-1.2,9.3,0.4L419.5,328z M384.4,348.3c2.7,1.6,3,4,0.7,5.4l-21.1,12.2c-2.4,1.4-6.5,1.2-9.3-0.4l-24.4-14.1
		c-2.7-1.6-3-4-0.7-5.4l21.1-12.2c2.4-1.4,6.5-1.2,9.3,0.4L384.4,348.3z M349.3,368.6c2.7,1.6,3,4,0.7,5.4l-21.1,12.2
		c-2.4,1.4-6.5,1.2-9.3-0.4l-24.4-14.1c-2.7-1.6-3-4-0.7-5.4l21.1-12.2c2.4-1.4,6.5-1.2,9.3,0.4L349.3,368.6z M345.4,383.7
		l21.1-12.2c2.4-1.4,6.5-1.2,9.3,0.4l24.4,14.1c2.7,1.6,3,4,0.7,5.4l-21.1,12.2c-2.4,1.4-6.5,1.2-9.3-0.4l-24.4-14.1
		C343.4,387.5,343.1,385.1,345.4,383.7z M381.2,368.8c-2.7-1.6-3-4-0.7-5.4l21.1-12.2c2.4-1.4,6.5-1.2,9.3,0.4l24.4,14.1
		c2.7,1.6,3,4,0.7,5.4l-21.1,12.2c-2.4,1.4-6.5,1.2-9.3-0.4L381.2,368.8z M416.3,348.5c-2.7-1.6-3-4-0.7-5.4l21.1-12.2
		c2.4-1.4,6.5-1.2,9.3,0.4l24.4,14.1c2.7,1.6,3,4,0.7,5.4L450,363c-2.4,1.4-6.5,1.2-9.3-0.4L416.3,348.5z M451.5,328.2
		c-2.7-1.6-3-4-0.7-5.4l21.1-12.2c2.4-1.4,6.5-1.2,9.3,0.4l24.4,14.1c2.7,1.6,3,4,0.7,5.4l-21.1,12.2c-2.4,1.4-6.5,1.2-9.3-0.4
		L451.5,328.2z M486.6,307.9c-2.7-1.6-3-4-0.7-5.4l21.1-12.2c2.4-1.4,6.5-1.2,9.3,0.4l24.4,14.1c2.7,1.6,3,4,0.7,5.4l-21.1,12.2
		c-2.4,1.4-6.5,1.2-9.3-0.4L486.6,307.9z M521.7,287.7c-2.7-1.6-3-4-0.7-5.4l21.1-12.2c2.4-1.4,6.5-1.2,9.3,0.4l24.4,14.1
		c2.7,1.6,3,4,0.7,5.4l-21.1,12.2c-2.4,1.4-6.5,1.2-9.3-0.4L521.7,287.7z M556.9,267.4c-2.7-1.6-3-4-0.7-5.4l21.1-12.2
		c2.4-1.4,6.5-1.2,9.3,0.4l24.4,14.1c2.7,1.6,3,4,0.7,5.4l-21.1,12.2c-2.4,1.4-6.5,1.2-9.3-0.4L556.9,267.4z M592,247.1
		c-2.7-1.6-3-4-0.7-5.4l21.1-12.2c2.4-1.4,6.5-1.2,9.3,0.4l24.4,14.1c2.7,1.6,3,4,0.7,5.4l-21.1,12.2c-2.4,1.4-6.5,1.2-9.3-0.4
		L592,247.1z M627.1,226.8c-2.7-1.6-3-4-0.7-5.4l21.1-12.2c2.4-1.4,6.5-1.2,9.3,0.4l24.4,14.1c2.7,1.6,3,4,0.7,5.4l-21.1,12.2
		c-2.4,1.4-6.5,1.2-9.3-0.4L627.1,226.8z M684.6,234.7l21.1-12.2c2.4-1.4,6.5-1.2,9.3,0.4l24.4,14.1c2.7,1.6,3,4,0.7,5.4l-21.1,12.2
		c-2.4,1.4-6.5,1.2-9.3-0.4l-24.4-14.1C682.5,238.5,682.2,236.1,684.6,234.7z M717.1,208.8L695.9,221c-2.4,1.4-6.5,1.2-9.3-0.4
		l-24.4-14.1c-2.7-1.6-3-4-0.7-5.4l21.1-12.2c2.4-1.4,6.5-1.2,9.3,0.4l24.4,14.1C719.1,205,719.4,207.4,717.1,208.8z M680.1,183.3
		c-2.4,1.4-6.5,1.2-9.3-0.4l-24.4-14.1c-2.7-1.6-3-4-0.7-5.4l21.1-12.2c2.4-1.4,6.5-1.2,9.3,0.4l24.4,14.1c2.7,1.6,3,4,0.7,5.4
		L680.1,183.3z M660.3,147.9c-2.4,1.4-6.5,1.2-9.3-0.4l-24.4-14.1c-2.7-1.6-3-4-0.7-5.4l21.1-12.2c2.4-1.4,6.5-1.2,9.3,0.4
		l24.4,14.1c2.7,1.6,3,4,0.7,5.4L660.3,147.9z M645.7,150.6c2.7,1.6,3,4,0.7,5.4l-21.1,12.2c-2.4,1.4-6.5,1.2-9.3-0.4l-24.4-14.1
		c-2.7-1.6-3-4-0.7-5.4l21.1-12.2c2.4-1.4,6.5-1.2,9.3,0.4L645.7,150.6z M610.5,170.9c2.7,1.6,3,4,0.7,5.4l-21.1,12.2
		c-2.4,1.4-6.5,1.2-9.3-0.4L556.4,174c-2.7-1.6-3-4-0.7-5.4l21.1-12.2c2.4-1.4,6.5-1.2,9.3,0.4L610.5,170.9z M575.4,191.2
		c2.7,1.6,3,4,0.7,5.4l-21.1,12.2c-2.4,1.4-6.5,1.2-9.3-0.4l-24.4-14.1c-2.7-1.6-3-4-0.7-5.4l21.1-12.2c2.4-1.4,6.5-1.2,9.3,0.4
		L575.4,191.2z M540.3,211.4c2.7,1.6,3,4,0.7,5.4L519.8,229c-2.4,1.4-6.5,1.2-9.3-0.4l-24.4-14.1c-2.7-1.6-3-4-0.7-5.4l21.1-12.2
		c2.4-1.4,6.5-1.2,9.3,0.4L540.3,211.4z M505.2,231.7c2.7,1.6,3,4,0.7,5.4l-21.1,12.2c-2.4,1.4-6.5,1.2-9.3-0.4L451,234.8
		c-2.7-1.6-3-4-0.7-5.4l21.1-12.2c2.4-1.4,6.5-1.2,9.3,0.4L505.2,231.7z M470,252c2.7,1.6,3,4,0.7,5.4l-21.1,12.2
		c-2.4,1.4-6.5,1.2-9.3-0.4l-24.4-14.1c-2.7-1.6-3-4-0.7-5.4l21.1-12.2c2.4-1.4,6.5-1.2,9.3,0.4L470,252z M434.9,272.3
		c2.7,1.6,3,4,0.7,5.4l-21.1,12.2c-2.4,1.4-6.5,1.2-9.3-0.4l-24.4-14.1c-2.7-1.6-3-4-0.7-5.4l21.1-12.2c2.4-1.4,6.5-1.2,9.3,0.4
		L434.9,272.3z M399.8,292.6c2.7,1.6,3,4,0.7,5.4l-21.1,12.2c-2.4,1.4-6.5,1.2-9.3-0.4l-24.4-14.1c-2.7-1.6-3-4-0.7-5.4l21.1-12.2
		c2.4-1.4,6.5-1.2,9.3,0.4L399.8,292.6z M364.6,312.9c2.7,1.6,3,4,0.7,5.4l-21.1,12.2c-2.4,1.4-6.5,1.2-9.3-0.4l-24.4-14.1
		c-2.7-1.6-3-4-0.7-5.4l21.1-12.2c2.4-1.4,6.5-1.2,9.3,0.4L364.6,312.9z M329.5,333.1c2.7,1.6,3,4,0.7,5.4L309,350.7
		c-2.4,1.4-6.5,1.2-9.3-0.4l-24.4-14.1c-2.7-1.6-3-4-0.7-5.4l21.1-12.2c2.4-1.4,6.5-1.2,9.3,0.4L329.5,333.1z M294.4,353.4
		c2.7,1.6,3,4,0.7,5.4L273.9,371c-2.4,1.4-6.5,1.2-9.3-0.4l-24.4-14.1c-2.7-1.6-3-4-0.7-5.4l21.1-12.2c2.4-1.4,6.5-1.2,9.3,0.4
		L294.4,353.4z M259.2,373.7c2.7,1.6,3,4,0.7,5.4l-21.1,12.2c-2.4,1.4-6.5,1.2-9.3-0.4l-24.4-14.1c-2.7-1.6-3-4-0.7-5.4l21.1-12.2
		c2.4-1.4,6.5-1.2,9.3,0.4L259.2,373.7z M245.3,394.7c2.4-1.4,6.5-1.2,9.3,0.4l24.4,14.1c2.7,1.6,3,4,0.7,5.4l-21.1,12.2
		c-2.4,1.4-6.5,1.2-9.3-0.4l-24.4-14.1c-2.7-1.6-3-4-0.7-5.4L245.3,394.7z M260,391.9c-2.7-1.6-3-4-0.7-5.4l21.1-12.2
		c2.4-1.4,6.5-1.2,9.3,0.4l24.4,14.1c2.7,1.6,3,4,0.7,5.4l-21.1,12.2c-2.4,1.4-6.5,1.2-9.3-0.4L260,391.9z M310.3,404l21.1-12.2
		c2.4-1.4,6.5-1.2,9.3,0.4l24.4,14.1c2.7,1.6,3,4,0.7,5.4l-21.1,12.2c-2.4,1.4-6.5,1.2-9.3-0.4L311,409.4
		C308.2,407.8,307.9,405.4,310.3,404z M368.4,417.3l21.1-12.2c2.4-1.4,6.5-1.2,9.3,0.4l24.4,14.1c2.7,1.6,3,4,0.7,5.4l-21.1,12.2
		c-2.4,1.4-6.5,1.2-9.3-0.4l-24.4-14.1C366.4,421.1,366.1,418.6,368.4,417.3z M404.2,402.3c-2.7-1.6-3-4-0.7-5.4l21.1-12.2
		c2.4-1.4,6.5-1.2,9.3,0.4l24.4,14.1c2.7,1.6,3,4,0.7,5.4l-21.1,12.2c-2.4,1.4-6.5,1.2-9.3-0.4L404.2,402.3z M439.3,382.1
		c-2.7-1.6-3-4-0.7-5.4l21.1-12.2c2.4-1.4,6.5-1.2,9.3,0.4l24.4,14.1c2.7,1.6,3,4,0.7,5.4L473,396.5c-2.4,1.4-6.5,1.2-9.3-0.4
		L439.3,382.1z M474.5,361.8c-2.7-1.6-3-4-0.7-5.4l21.1-12.2c2.4-1.4,6.5-1.2,9.3,0.4l24.4,14.1c2.7,1.6,3,4,0.7,5.4l-21.1,12.2
		c-2.4,1.4-6.5,1.2-9.3-0.4L474.5,361.8z M509.6,341.5c-2.7-1.6-3-4-0.7-5.4l21.1-12.2c2.4-1.4,6.5-1.2,9.3,0.4l24.4,14.1
		c2.7,1.6,3,4,0.7,5.4L543.3,356c-2.4,1.4-6.5,1.2-9.3-0.4L509.6,341.5z M544.7,321.2c-2.7-1.6-3-4-0.7-5.4l21.1-12.2
		c2.4-1.4,6.5-1.2,9.3,0.4l24.4,14.1c2.7,1.6,3,4,0.7,5.4l-21.1,12.2c-2.4,1.4-6.5,1.2-9.3-0.4L544.7,321.2z M579.9,300.9
		c-2.7-1.6-3-4-0.7-5.4l21.1-12.2c2.4-1.4,6.5-1.2,9.3,0.4l24.4,14.1c2.7,1.6,3,4,0.7,5.4l-21.1,12.2c-2.4,1.4-6.5,1.2-9.3-0.4
		L579.9,300.9z M615,280.7c-2.7-1.6-3-4-0.7-5.4l21.1-12.2c2.4-1.4,6.5-1.2,9.3,0.4l24.4,14.1c2.7,1.6,3,4,0.7,5.4l-21.1,12.2
		c-2.4,1.4-6.5,1.2-9.3-0.4L615,280.7z M650.1,260.4c-2.7-1.6-3-4-0.7-5.4l21.1-12.2c2.4-1.4,6.5-1.2,9.3,0.4l24.4,14.1
		c2.7,1.6,3,4,0.7,5.4l-21.1,12.2c-2.4,1.4-6.5,1.2-9.3-0.4L650.1,260.4z M808.6,249.6l-21.1,12.2c-2.4,1.4-6.5,1.2-9.3-0.4
		l-24.4-14.1c-2.7-1.6-3-4-0.7-5.4l21.1-12.2c2.4-1.4,6.5-1.2,9.3,0.4l24.4,14.1C810.7,245.9,811,248.3,808.6,249.6z M843.7,229.3
		l-21.1,12.2c-2.4,1.4-6.5,1.2-9.3-0.4l-24.4-14.1c-2.7-1.6-3-4-0.7-5.4l21.1-12.2c2.4-1.4,6.5-1.2,9.3,0.4l24.4,14.1
		C845.8,225.6,846.1,228,843.7,229.3z M853.8,189.6l24.4,14.1c2.7,1.6,3,4,0.7,5.4l-21.1,12.2c-2.4,1.4-6.5,1.2-9.3-0.4l-24.4-14.1
		c-2.7-1.6-3-4-0.7-5.4l21.1-12.2C846.9,187.9,851.1,188,853.8,189.6z M813.2,166.2l24.4,14.1c2.7,1.6,3,4,0.7,5.4l-84.2,48.6
		c-2.4,1.4-6.5,1.2-9.3-0.4l-24.4-14.1c-2.7-1.6-3-4-0.7-5.4l84.2-48.6C806.3,164.5,810.5,164.6,813.2,166.2z M772.7,142.8
		l24.4,14.1c2.7,1.6,3,4,0.7,5.4l-66.7,38.5c-2.4,1.4-6.5,1.2-9.3-0.4l-24.4-14.1c-2.7-1.6-3-4-0.7-5.4l66.7-38.5
		C765.8,141,769.9,141.2,772.7,142.8z M732.1,119.4l24.4,14.1c2.7,1.6,3,4,0.7,5.4L715.2,163c-2.4,1.4-6.5,1.2-9.3-0.4l-24.4-14.1
		c-2.7-1.6-3-4-0.7-5.4l41.9-24.2C725.2,117.6,729.4,117.8,732.1,119.4z M691.5,95.9l24.4,14.1c2.7,1.6,3,4,0.7,5.4l-21.1,12.2
		c-2.4,1.4-6.5,1.2-9.3-0.4l-24.4-14.1c-2.7-1.6-3-4-0.7-5.4l21.1-12.2C684.6,94.2,688.8,94.4,691.5,95.9z M633.7,96.6l25.2-14.5
		c2.4-1.4,6.5-1.2,9.3,0.4l7.2,4.2c2.7,1.6,3,4,0.7,5.4l-25.2,14.5c-2.4,1.4-6.5,1.2-9.3-0.4l-7.2-4.2
		C631.6,100.4,631.3,97.9,633.7,96.6z M594.6,119.2l25.2-14.5c2.4-1.4,6.5-1.2,9.3,0.4l7.2,4.2c2.7,1.6,3,4,0.7,5.4l-25.2,14.5
		c-2.4,1.4-6.5,1.2-9.3-0.4l-7.2-4.2C592.5,122.9,592.2,120.5,594.6,119.2z M555.4,141.8l25.2-14.5c2.4-1.4,6.5-1.2,9.3,0.4l7.2,4.2
		c2.7,1.6,3,4,0.7,5.4l-25.2,14.5c-2.4,1.4-6.5,1.2-9.3-0.4l-7.2-4.2C553.4,145.5,553.1,143.1,555.4,141.8z M516.3,164.3l25.2-14.5
		c2.4-1.4,6.5-1.2,9.3,0.4l7.2,4.2c2.7,1.6,3,4,0.7,5.4l-25.2,14.5c-2.4,1.4-6.5,1.2-9.3-0.4l-7.2-4.2
		C514.3,168.1,514,165.7,516.3,164.3z M477.2,186.9l25.2-14.5c2.4-1.4,6.5-1.2,9.3,0.4l7.2,4.2c2.7,1.6,3,4,0.7,5.4l-25.2,14.5
		c-2.4,1.4-6.5,1.2-9.3-0.4l-7.2-4.2C475.1,190.7,474.8,188.3,477.2,186.9z M438.1,209.5l25.2-14.5c2.4-1.4,6.5-1.2,9.3,0.4l7.2,4.2
		c2.7,1.6,3,4,0.7,5.4l-25.2,14.5c-2.4,1.4-6.5,1.2-9.3-0.4l-7.2-4.2C436,213.3,435.7,210.9,438.1,209.5z M399,232.1l25.2-14.5
		c2.4-1.4,6.5-1.2,9.3,0.4l7.2,4.2c2.7,1.6,3,4,0.7,5.4L416.1,242c-2.4,1.4-6.5,1.2-9.3-0.4l-7.2-4.2
		C396.9,235.9,396.6,233.5,399,232.1z M359.8,254.7l25.2-14.5c2.4-1.4,6.5-1.2,9.3,0.4l7.2,4.2c2.7,1.6,3,4,0.7,5.4L377,264.6
		c-2.4,1.4-6.5,1.2-9.3-0.4l-7.2-4.2C357.8,258.5,357.5,256.1,359.8,254.7z M320.7,277.3l25.2-14.5c2.4-1.4,6.5-1.2,9.3,0.4l7.2,4.2
		c2.7,1.6,3,4,0.7,5.4l-25.2,14.5c-2.4,1.4-6.5,1.2-9.3-0.4l-7.2-4.2C318.6,281.1,318.3,278.7,320.7,277.3z M281.6,299.9l25.2-14.5
		c2.4-1.4,6.5-1.2,9.3,0.4l7.2,4.2c2.7,1.6,3,4,0.7,5.4l-25.2,14.5c-2.4,1.4-6.5,1.2-9.3-0.4l-7.2-4.2
		C279.5,303.6,279.2,301.2,281.6,299.9z M242.5,322.5l25.2-14.5c2.4-1.4,6.5-1.2,9.3,0.4l7.2,4.2c2.7,1.6,3,4,0.7,5.4l-25.2,14.5
		c-2.4,1.4-6.5,1.2-9.3-0.4l-7.2-4.2C240.4,326.2,240.1,323.8,242.5,322.5z M203.3,345l25.2-14.5c2.4-1.4,6.5-1.2,9.3,0.4l7.2,4.2
		c2.7,1.6,3,4,0.7,5.4L220.5,355c-2.4,1.4-6.5,1.2-9.3-0.4l-7.2-4.2C201.3,348.8,201,346.4,203.3,345z M164.2,367.6l25.2-14.5
		c2.4-1.4,6.5-1.2,9.3,0.4l7.2,4.2c2.7,1.6,3,4,0.7,5.4l-25.2,14.5c-2.4,1.4-6.5,1.2-9.3-0.4l-7.2-4.2
		C162.2,371.4,161.9,369,164.2,367.6z M133,399.8l-7.2-4.2c-2.7-1.6-3-4-0.7-5.4l25.2-14.5c2.4-1.4,6.5-1.2,9.3,0.4l7.2,4.2
		c2.7,1.6,3,4,0.7,5.4l-25.2,14.5C139.9,401.5,135.7,401.3,133,399.8z M173.6,423.2l-24.4-14.1c-2.7-1.6-3-4-0.7-5.4l41.9-24.2
		c2.4-1.4,6.5-1.2,9.3,0.4l24.4,14.1c2.7,1.6,3,4,0.7,5.4l-41.9,24.2C180.5,424.9,176.3,424.7,173.6,423.2z M214.1,446.6l-24.4-14.1
		c-2.7-1.6-3-4-0.7-5.4l21.1-12.2c2.4-1.4,6.5-1.2,9.3,0.4l24.4,14.1c2.7,1.6,3,4,0.7,5.4L223.4,447
		C221,448.3,216.9,448.2,214.1,446.6z M254.7,470l-24.4-14.1c-2.7-1.6-3-4-0.7-5.4l66.7-38.5c2.4-1.4,6.5-1.2,9.3,0.4l24.4,14.1
		c2.7,1.6,3,4,0.7,5.4L264,470.4C261.6,471.8,257.4,471.6,254.7,470z M295.3,493.4l-24.4-14.1c-2.7-1.6-3-4-0.7-5.4l84.2-48.6
		c2.4-1.4,6.5-1.2,9.3,0.4l24.4,14.1c2.7,1.6,3,4,0.7,5.4l-84.2,48.6C302.2,495.2,298,495,295.3,493.4z M366.2,505l-21.1,12.2
		c-2.4,1.4-6.5,1.2-9.3-0.4l-7.2-4.2c-2.7-1.6-3-4-0.7-5.4l21.1-12.2c2.4-1.4,6.5-1.2,9.3,0.4l7.2,4.2
		C368.3,501.3,368.6,503.7,366.2,505z M401.4,484.8L380.2,497c-2.4,1.4-6.5,1.2-9.3-0.4l-7.2-4.2c-2.7-1.6-3-4-0.7-5.4
		c-2.4,1.4-6.5,1.2-9.3-0.4l-7.2-4.2c-2.7-1.6-3-4-0.7-5.4l21.1-12.2c2.4-1.4,6.5-1.2,9.3,0.4l7.2,4.2c2.7,1.6,3,4,0.7,5.4
		c2.4-1.4,6.5-1.2,9.3,0.4l7.2,4.2C403.4,481,403.7,483.4,401.4,484.8z M436.5,464.5l-21.1,12.2c-2.4,1.4-6.5,1.2-9.3-0.4l-7.2-4.2
		c-2.7-1.6-3-4-0.7-5.4l21.1-12.2c2.4-1.4,6.5-1.2,9.3,0.4l7.2,4.2C438.6,460.7,438.8,463.1,436.5,464.5z M471.6,444.2l-21.1,12.2
		c-2.4,1.4-6.5,1.2-9.3-0.4l-24.4-14.1c-2.7-1.6-3-4-0.7-5.4l21.1-12.2c2.4-1.4,6.5-1.2,9.3,0.4l24.4,14.1
		C473.7,440.4,474,442.8,471.6,444.2z M534.7,407.8l-49.1,28.3c-2.4,1.4-6.5,1.2-9.3-0.4l-24.4-14.1c-2.7-1.6-3-4-0.7-5.4l49.1-28.3
		c2.4-1.4,6.5-1.2,9.3,0.4l24.4,14.1C536.8,404,537.1,406.4,534.7,407.8z M539.4,399.3L515,385.2c-2.7-1.6-3-4-0.7-5.4L676,286.5
		c2.4-1.4,6.5-1.2,9.3,0.4l24.4,14.1c2.7,1.6,3,4,0.7,5.4l-161.7,93.3C546.3,401,542.2,400.9,539.4,399.3z"/>
	<polygon class="st2" points="674.9,330.1 678.8,333.1 678.8,333.1 	"/>
	<polygon class="st2" points="687.4,339.8 687.4,339.8 761.3,397.3 761.3,397.2 	"/>
	<polygon class="st2" points="674.9,364.7 674.9,362.5 674.9,355.9 674.9,353.7 674.9,347.1 549.8,419.3 654.9,480 745.7,427.6 
		674.9,370.9 	"/>
	<path class="st1" d="M824.1,206.8l24.4,14.1c2.7,1.6,6.9,1.8,9.3,0.4l21.1-12.2c2.4-1.4,2.1-3.8-0.7-5.4l-24.4-14.1
		c-2.7-1.6-6.9-1.8-9.3-0.4l-21.1,12.2C821,202.8,821.3,205.2,824.1,206.8z"/>
	<path class="st1" d="M843.1,224l-24.4-14.1c-2.7-1.6-6.9-1.8-9.3-0.4l-21.1,12.2c-2.4,1.4-2.1,3.8,0.7,5.4l24.4,14.1
		c2.7,1.6,6.9,1.8,9.3,0.4l21.1-12.2C846.1,228,845.8,225.6,843.1,224z"/>
	<path class="st1" d="M807.9,244.3l-24.4-14.1c-2.7-1.6-6.9-1.8-9.3-0.4L753.1,242c-2.4,1.4-2.1,3.8,0.7,5.4l24.4,14.1
		c2.7,1.6,6.9,1.8,9.3,0.4l21.1-12.2C811,248.3,810.7,245.9,807.9,244.3z"/>
	<path class="st1" d="M470.9,438.8l-24.4-14.1c-2.7-1.6-6.9-1.8-9.3-0.4l-21.1,12.2c-2.4,1.4-2.1,3.8,0.7,5.4l24.4,14.1
		c2.7,1.6,6.9,1.8,9.3,0.4l21.1-12.2C474,442.8,473.7,440.4,470.9,438.8z"/>
	<path class="st1" d="M772.8,264.6l-24.4-14.1c-2.7-1.6-6.9-1.8-9.3-0.4L690,278.4c-2.4,1.4-2.1,3.8,0.7,5.4l24.4,14.1
		c2.7,1.6,6.9,1.8,9.3,0.4l49.1-28.3C775.8,268.5,775.5,266.1,772.8,264.6z"/>
	<path class="st1" d="M534,402.4l-24.4-14.1c-2.7-1.6-6.9-1.8-9.3-0.4l-49.1,28.3c-2.4,1.4-2.1,3.8,0.7,5.4l24.4,14.1
		c2.7,1.6,6.9,1.8,9.3,0.4l49.1-28.3C537.1,406.4,536.8,404,534,402.4z"/>
	<path class="st1" d="M709.7,301l-24.4-14.1c-2.7-1.6-6.9-1.8-9.3-0.4l-161.7,93.3c-2.4,1.4-2.1,3.8,0.7,5.4l24.4,14.1
		c2.7,1.6,6.9,1.8,9.3,0.4l161.7-93.3C712.7,305,712.4,302.6,709.7,301z"/>
	<path class="st1" d="M435.8,459.1l-7.2-4.2c-2.7-1.6-6.9-1.8-9.3-0.4l-21.1,12.2c-2.4,1.4-2.1,3.8,0.7,5.4l7.2,4.2
		c2.7,1.6,6.9,1.8,9.3,0.4l21.1-12.2C438.8,463.1,438.6,460.7,435.8,459.1z"/>
	<path class="st1" d="M400.7,479.4l-7.2-4.2c-2.7-1.6-6.9-1.8-9.3-0.4L363.1,487c-2.4,1.4-2.1,3.8,0.7,5.4l7.2,4.2
		c2.7,1.6,6.9,1.8,9.3,0.4l21.1-12.2C403.7,483.4,403.4,481,400.7,479.4z"/>
	<path class="st1" d="M383.5,469.5l-7.2-4.2c-2.7-1.6-6.9-1.8-9.3-0.4l-21.1,12.2c-2.4,1.4-2.1,3.8,0.7,5.4l7.2,4.2
		c2.7,1.6,6.9,1.8,9.3,0.4l21.1-12.2C386.6,473.5,386.3,471.1,383.5,469.5z"/>
	<path class="st1" d="M365.6,499.7l-7.2-4.2c-2.7-1.6-6.9-1.8-9.3-0.4l-21.1,12.2c-2.4,1.4-2.1,3.8,0.7,5.4l7.2,4.2
		c2.7,1.6,6.9,1.8,9.3,0.4l21.1-12.2C368.6,503.7,368.3,501.3,365.6,499.7z"/>
	<path class="st1" d="M634.4,101.9l7.2,4.2c2.7,1.6,6.9,1.8,9.3,0.4L676,92c2.4-1.4,2.1-3.8-0.7-5.4l-7.2-4.2
		c-2.7-1.6-6.9-1.8-9.3-0.4l-25.2,14.5C631.3,97.9,631.6,100.4,634.4,101.9z"/>
	<path class="st1" d="M595.2,124.5l7.2,4.2c2.7,1.6,6.9,1.8,9.3,0.4l25.2-14.5c2.4-1.4,2.1-3.8-0.7-5.4L629,105
		c-2.7-1.6-6.9-1.8-9.3-0.4l-25.2,14.5C592.2,120.5,592.5,122.9,595.2,124.5z"/>
	<path class="st1" d="M556.1,147.1l7.2,4.2c2.7,1.6,6.9,1.8,9.3,0.4l25.2-14.5c2.4-1.4,2.1-3.8-0.7-5.4l-7.2-4.2
		c-2.7-1.6-6.9-1.8-9.3-0.4l-25.2,14.5C553.1,143.1,553.4,145.5,556.1,147.1z"/>
	<path class="st1" d="M517,169.7l7.2,4.2c2.7,1.6,6.9,1.8,9.3,0.4l25.2-14.5c2.4-1.4,2.1-3.8-0.7-5.4l-7.2-4.2
		c-2.7-1.6-6.9-1.8-9.3-0.4l-25.2,14.5C514,165.7,514.3,168.1,517,169.7z"/>
	<path class="st1" d="M477.9,192.3l7.2,4.2c2.7,1.6,6.9,1.8,9.3,0.4l25.2-14.5c2.4-1.4,2.1-3.8-0.7-5.4l-7.2-4.2
		c-2.7-1.6-6.9-1.8-9.3-0.4l-25.2,14.5C474.8,188.3,475.1,190.7,477.9,192.3z"/>
	<path class="st1" d="M438.7,214.9l7.2,4.2c2.7,1.6,6.9,1.8,9.3,0.4l25.2-14.5c2.4-1.4,2.1-3.8-0.7-5.4l-7.2-4.2
		c-2.7-1.6-6.9-1.8-9.3-0.4l-25.2,14.5C435.7,210.9,436,213.3,438.7,214.9z"/>
	<path class="st1" d="M399.6,237.5l7.2,4.2c2.7,1.6,6.9,1.8,9.3,0.4l25.2-14.5c2.4-1.4,2.1-3.8-0.7-5.4l-7.2-4.2
		c-2.7-1.6-6.9-1.8-9.3-0.4L399,232.1C396.6,233.5,396.9,235.9,399.6,237.5z"/>
	<path class="st1" d="M360.5,260l7.2,4.2c2.7,1.6,6.9,1.8,9.3,0.4l25.2-14.5c2.4-1.4,2.1-3.8-0.7-5.4l-7.2-4.2
		c-2.7-1.6-6.9-1.8-9.3-0.4l-25.2,14.5C357.5,256.1,357.8,258.5,360.5,260z"/>
	<path class="st1" d="M321.4,282.6l7.2,4.2c2.7,1.6,6.9,1.8,9.3,0.4l25.2-14.5c2.4-1.4,2.1-3.8-0.7-5.4l-7.2-4.2
		c-2.7-1.6-6.9-1.8-9.3-0.4l-25.2,14.5C318.3,278.7,318.6,281.1,321.4,282.6z"/>
	<path class="st1" d="M282.3,305.2l7.2,4.2c2.7,1.6,6.9,1.8,9.3,0.4l25.2-14.5c2.4-1.4,2.1-3.8-0.7-5.4l-7.2-4.2
		c-2.7-1.6-6.9-1.8-9.3-0.4l-25.2,14.5C279.2,301.2,279.5,303.6,282.3,305.2z"/>
	<path class="st1" d="M243.1,327.8l7.2,4.2c2.7,1.6,6.9,1.8,9.3,0.4l25.2-14.5c2.4-1.4,2.1-3.8-0.7-5.4l-7.2-4.2
		c-2.7-1.6-6.9-1.8-9.3-0.4l-25.2,14.5C240.1,323.8,240.4,326.2,243.1,327.8z"/>
	<path class="st1" d="M204,350.4l7.2,4.2c2.7,1.6,6.9,1.8,9.3,0.4l25.2-14.5c2.4-1.4,2.1-3.8-0.7-5.4l-7.2-4.2
		c-2.7-1.6-6.9-1.8-9.3-0.4L203.3,345C201,346.4,201.3,348.8,204,350.4z"/>
	<path class="st1" d="M164.9,373l7.2,4.2c2.7,1.6,6.9,1.8,9.3,0.4l25.2-14.5c2.4-1.4,2.1-3.8-0.7-5.4l-7.2-4.2
		c-2.7-1.6-6.9-1.8-9.3-0.4l-25.2,14.5C161.9,369,162.2,371.4,164.9,373z"/>
	<path class="st1" d="M166.8,380.3l-7.2-4.2c-2.7-1.6-6.9-1.8-9.3-0.4l-25.2,14.5c-2.4,1.4-2.1,3.8,0.7,5.4l7.2,4.2
		c2.7,1.6,6.9,1.8,9.3,0.4l25.2-14.5C169.8,384.2,169.5,381.8,166.8,380.3z"/>
	<path class="st1" d="M661.8,113.1l24.4,14.1c2.7,1.6,6.9,1.8,9.3,0.4l21.1-12.2c2.4-1.4,2.1-3.8-0.7-5.4l-24.4-14.1
		c-2.7-1.6-6.9-1.8-9.3-0.4l-21.1,12.2C658.8,109.1,659.1,111.5,661.8,113.1z"/>
	<path class="st1" d="M680.8,130.3l-24.4-14.1c-2.7-1.6-6.9-1.8-9.3-0.4L626,128c-2.4,1.4-2.1,3.8,0.7,5.4l24.4,14.1
		c2.7,1.6,6.9,1.8,9.3,0.4l21.1-12.2C683.8,134.3,683.5,131.9,680.8,130.3z"/>
	<path class="st1" d="M612,136.1l-21.1,12.2c-2.4,1.4-2.1,3.8,0.7,5.4l24.4,14.1c2.7,1.6,6.9,1.8,9.3,0.4l21.1-12.2
		c2.4-1.4,2.1-3.8-0.7-5.4l-24.4-14.1C618.5,134.9,614.4,134.8,612,136.1z"/>
	<path class="st1" d="M576.9,156.4l-21.1,12.2c-2.4,1.4-2.1,3.8,0.7,5.4l24.4,14.1c2.7,1.6,6.9,1.8,9.3,0.4l21.1-12.2
		c2.4-1.4,2.1-3.8-0.7-5.4l-24.4-14.1C583.4,155.2,579.2,155,576.9,156.4z"/>
	<path class="st1" d="M541.7,176.7l-21.1,12.2c-2.4,1.4-2.1,3.8,0.7,5.4l24.4,14.1c2.7,1.6,6.9,1.8,9.3,0.4l21.1-12.2
		c2.4-1.4,2.1-3.8-0.7-5.4L551,177.1C548.3,175.5,544.1,175.3,541.7,176.7z"/>
	<path class="st1" d="M506.6,197l-21.1,12.2c-2.4,1.4-2.1,3.8,0.7,5.4l24.4,14.1c2.7,1.6,6.9,1.8,9.3,0.4l21.1-12.2
		c2.4-1.4,2.1-3.8-0.7-5.4l-24.4-14.1C513.1,195.8,509,195.6,506.6,197z"/>
	<path class="st1" d="M471.5,217.3l-21.1,12.2c-2.4,1.4-2.1,3.8,0.7,5.4l24.4,14.1c2.7,1.6,6.9,1.8,9.3,0.4l21.1-12.2
		c2.4-1.4,2.1-3.8-0.7-5.4l-24.4-14.1C478,216.1,473.8,215.9,471.5,217.3z"/>
	<path class="st1" d="M436.3,237.5l-21.1,12.2c-2.4,1.4-2.1,3.8,0.7,5.4l24.4,14.1c2.7,1.6,6.9,1.8,9.3,0.4l21.1-12.2
		c2.4-1.4,2.1-3.8-0.7-5.4l-24.4-14.1C442.9,236.3,438.7,236.2,436.3,237.5z"/>
	<path class="st1" d="M401.2,257.8L380.1,270c-2.4,1.4-2.1,3.8,0.7,5.4l24.4,14.1c2.7,1.6,6.9,1.8,9.3,0.4l21.1-12.2
		c2.4-1.4,2.1-3.8-0.7-5.4l-24.4-14.1C407.8,256.6,403.6,256.5,401.2,257.8z"/>
	<path class="st1" d="M366.1,278.1L345,290.3c-2.4,1.4-2.1,3.8,0.7,5.4l24.4,14.1c2.7,1.6,6.9,1.8,9.3,0.4l21.1-12.2
		c2.4-1.4,2.1-3.8-0.7-5.4l-24.4-14.1C372.6,276.9,368.5,276.7,366.1,278.1z"/>
	<path class="st1" d="M331,298.4l-21.1,12.2c-2.4,1.4-2.1,3.8,0.7,5.4l24.4,14.1c2.7,1.6,6.9,1.8,9.3,0.4l21.1-12.2
		c2.4-1.4,2.1-3.8-0.7-5.4l-24.4-14.1C337.5,297.2,333.3,297,331,298.4z"/>
	<path class="st1" d="M295.8,318.7l-21.1,12.2c-2.4,1.4-2.1,3.8,0.7,5.4l24.4,14.1c2.7,1.6,6.9,1.8,9.3,0.4l21.1-12.2
		c2.4-1.4,2.1-3.8-0.7-5.4l-24.4-14.1C302.4,317.5,298.2,317.3,295.8,318.7z"/>
	<path class="st1" d="M260.7,338.9l-21.1,12.2c-2.4,1.4-2.1,3.8,0.7,5.4l24.4,14.1c2.7,1.6,6.9,1.8,9.3,0.4l21.1-12.2
		c2.4-1.4,2.1-3.8-0.7-5.4L270,339.3C267.2,337.8,263.1,337.6,260.7,338.9z"/>
	<path class="st1" d="M225.6,359.2l-21.1,12.2c-2.4,1.4-2.1,3.8,0.7,5.4l24.4,14.1c2.7,1.6,6.9,1.8,9.3,0.4l21.1-12.2
		c2.4-1.4,2.1-3.8-0.7-5.4l-24.4-14.1C232.1,358,227.9,357.9,225.6,359.2z"/>
	<path class="st1" d="M224.1,394l-24.4-14.1c-2.7-1.6-6.9-1.8-9.3-0.4l-41.9,24.2c-2.4,1.4-2.1,3.8,0.7,5.4l24.4,14.1
		c2.7,1.6,6.9,1.8,9.3,0.4l41.9-24.2C227.1,398,226.8,395.6,224.1,394z"/>
	<path class="st1" d="M243.9,429.4l-24.4-14.1c-2.7-1.6-6.9-1.8-9.3-0.4l-21.1,12.2c-2.4,1.4-2.1,3.8,0.7,5.4l24.4,14.1
		c2.7,1.6,6.9,1.8,9.3,0.4l21.1-12.2C246.9,433.4,246.6,431,243.9,429.4z"/>
	<path class="st1" d="M224.9,412.2l24.4,14.1c2.7,1.6,6.9,1.8,9.3,0.4l21.1-12.2c2.4-1.4,2.1-3.8-0.7-5.4l-24.4-14.1
		c-2.7-1.6-6.9-1.8-9.3-0.4l-21.1,12.2C221.8,408.2,222.1,410.6,224.9,412.2z"/>
	<path class="st1" d="M293.7,406.4l21.1-12.2c2.4-1.4,2.1-3.8-0.7-5.4l-24.4-14.1c-2.7-1.6-6.9-1.8-9.3-0.4l-21.1,12.2
		c-2.4,1.4-2.1,3.8,0.7,5.4l24.4,14.1C287.1,407.6,291.3,407.8,293.7,406.4z"/>
	<path class="st1" d="M315.6,354.1l-21.1,12.2c-2.4,1.4-2.1,3.8,0.7,5.4l24.4,14.1c2.7,1.6,6.9,1.8,9.3,0.4l21.1-12.2
		c2.4-1.4,2.1-3.8-0.7-5.4l-24.4-14.1C322.1,352.9,317.9,352.7,315.6,354.1z"/>
	<path class="st1" d="M350.7,333.8L329.6,346c-2.4,1.4-2.1,3.8,0.7,5.4l24.4,14.1c2.7,1.6,6.9,1.8,9.3,0.4l21.1-12.2
		c2.4-1.4,2.1-3.8-0.7-5.4L360,334.2C357.2,332.6,353.1,332.5,350.7,333.8z"/>
	<path class="st1" d="M385.8,313.5l-21.1,12.2c-2.4,1.4-2.1,3.8,0.7,5.4l24.4,14.1c2.7,1.6,6.9,1.8,9.3,0.4l21.1-12.2
		c2.4-1.4,2.1-3.8-0.7-5.4l-24.4-14.1C392.4,312.3,388.2,312.2,385.8,313.5z"/>
	<path class="st1" d="M421,293.3l-21.1,12.2c-2.4,1.4-2.1,3.8,0.7,5.4l24.4,14.1c2.7,1.6,6.9,1.8,9.3,0.4l21.1-12.2
		c2.4-1.4,2.1-3.8-0.7-5.4l-24.4-14.1C427.5,292.1,423.3,291.9,421,293.3z"/>
	<path class="st1" d="M456.1,273L435,285.2c-2.4,1.4-2.1,3.8,0.7,5.4l24.4,14.1c2.7,1.6,6.9,1.8,9.3,0.4l21.1-12.2
		c2.4-1.4,2.1-3.8-0.7-5.4l-24.4-14.1C462.6,271.8,458.5,271.6,456.1,273z"/>
	<path class="st1" d="M491.2,252.7l-21.1,12.2c-2.4,1.4-2.1,3.8,0.7,5.4l24.4,14.1c2.7,1.6,6.9,1.8,9.3,0.4l21.1-12.2
		c2.4-1.4,2.1-3.8-0.7-5.4l-24.4-14.1C497.8,251.5,493.6,251.3,491.2,252.7z"/>
	<path class="st1" d="M526.4,232.4l-21.1,12.2c-2.4,1.4-2.1,3.8,0.7,5.4l24.4,14.1c2.7,1.6,6.9,1.8,9.3,0.4l21.1-12.2
		c2.4-1.4,2.1-3.8-0.7-5.4l-24.4-14.1C532.9,231.2,528.7,231,526.4,232.4z"/>
	<path class="st1" d="M561.5,212.1l-21.1,12.2c-2.4,1.4-2.1,3.8,0.7,5.4l24.4,14.1c2.7,1.6,6.9,1.8,9.3,0.4l21.1-12.2
		c2.4-1.4,2.1-3.8-0.7-5.4l-24.4-14.1C568,210.9,563.9,210.8,561.5,212.1z"/>
	<path class="st1" d="M596.6,191.8L575.5,204c-2.4,1.4-2.1,3.8,0.7,5.4l24.4,14.1c2.7,1.6,6.9,1.8,9.3,0.4l21.1-12.2
		c2.4-1.4,2.1-3.8-0.7-5.4l-24.4-14.1C603.2,190.6,599,190.5,596.6,191.8z"/>
	<path class="st1" d="M635.7,203.2c2.7,1.6,6.9,1.8,9.3,0.4l21.1-12.2c2.4-1.4,2.1-3.8-0.7-5.4L641,171.9c-2.7-1.6-6.9-1.8-9.3-0.4
		l-21.1,12.2c-2.4,1.4-2.1,3.8,0.7,5.4L635.7,203.2z"/>
	<path class="st1" d="M700.6,165.7l-24.4-14.1c-2.7-1.6-6.9-1.8-9.3-0.4l-21.1,12.2c-2.4,1.4-2.1,3.8,0.7,5.4l24.4,14.1
		c2.7,1.6,6.9,1.8,9.3,0.4l21.1-12.2C703.6,169.7,703.3,167.3,700.6,165.7z"/>
	<path class="st1" d="M681.5,148.5l24.4,14.1c2.7,1.6,6.9,1.8,9.3,0.4l41.9-24.2c2.4-1.4,2.1-3.8-0.7-5.4l-24.4-14.1
		c-2.7-1.6-6.9-1.8-9.3-0.4l-41.9,24.2C678.5,144.6,678.8,147,681.5,148.5z"/>
	<path class="st1" d="M311,409.4l24.4,14.1c2.7,1.6,6.9,1.8,9.3,0.4l21.1-12.2c2.4-1.4,2.1-3.8-0.7-5.4l-24.4-14.1
		c-2.7-1.6-6.9-1.8-9.3-0.4L310.3,404C307.9,405.4,308.2,407.8,311,409.4z"/>
	<path class="st1" d="M346.1,389.1l24.4,14.1c2.7,1.6,6.9,1.8,9.3,0.4l21.1-12.2c2.4-1.4,2.1-3.8-0.7-5.4l-24.4-14.1
		c-2.7-1.6-6.9-1.8-9.3-0.4l-21.1,12.2C343.1,385.1,343.4,387.5,346.1,389.1z"/>
	<path class="st1" d="M414.9,383.3l21.1-12.2c2.4-1.4,2.1-3.8-0.7-5.4L411,351.6c-2.7-1.6-6.9-1.8-9.3-0.4l-21.1,12.2
		c-2.4,1.4-2.1,3.8,0.7,5.4l24.4,14.1C408.3,384.5,412.5,384.6,414.9,383.3z"/>
	<path class="st1" d="M450,363l21.1-12.2c2.4-1.4,2.1-3.8-0.7-5.4l-24.4-14.1c-2.7-1.6-6.9-1.8-9.3-0.4l-21.1,12.2
		c-2.4,1.4-2.1,3.8,0.7,5.4l24.4,14.1C443.5,364.2,447.7,364.3,450,363z"/>
	<path class="st1" d="M485.1,342.7l21.1-12.2c2.4-1.4,2.1-3.8-0.7-5.4l-24.4-14.1c-2.7-1.6-6.9-1.8-9.3-0.4l-21.1,12.2
		c-2.4,1.4-2.1,3.8,0.7,5.4l24.4,14.1C478.6,343.9,482.8,344.1,485.1,342.7z"/>
	<path class="st1" d="M520.3,322.4l21.1-12.2c2.4-1.4,2.1-3.8-0.7-5.4l-24.4-14.1c-2.7-1.6-6.9-1.8-9.3-0.4l-21.1,12.2
		c-2.4,1.4-2.1,3.8,0.7,5.4L511,322C513.7,323.6,517.9,323.8,520.3,322.4z"/>
	<path class="st1" d="M555.4,302.1l21.1-12.2c2.4-1.4,2.1-3.8-0.7-5.4l-24.4-14.1c-2.7-1.6-6.9-1.8-9.3-0.4l-21.1,12.2
		c-2.4,1.4-2.1,3.8,0.7,5.4l24.4,14.1C548.9,303.3,553,303.5,555.4,302.1z"/>
	<path class="st1" d="M590.5,281.8l21.1-12.2c2.4-1.4,2.1-3.8-0.7-5.4l-24.4-14.1c-2.7-1.6-6.9-1.8-9.3-0.4L556.2,262
		c-2.4,1.4-2.1,3.8,0.7,5.4l24.4,14.1C584,283,588.2,283.2,590.5,281.8z"/>
	<path class="st1" d="M625.7,261.6l21.1-12.2c2.4-1.4,2.1-3.8-0.7-5.4l-24.4-14.1c-2.7-1.6-6.9-1.8-9.3-0.4l-21.1,12.2
		c-2.4,1.4-2.1,3.8,0.7,5.4l24.4,14.1C619.1,262.8,623.3,262.9,625.7,261.6z"/>
	<path class="st1" d="M660.8,241.3l21.1-12.2c2.4-1.4,2.1-3.8-0.7-5.4l-24.4-14.1c-2.7-1.6-6.9-1.8-9.3-0.4l-21.1,12.2
		c-2.4,1.4-2.1,3.8,0.7,5.4l24.4,14.1C654.3,242.5,658.4,242.6,660.8,241.3z"/>
	<path class="st1" d="M716.4,203.4L692,189.4c-2.7-1.6-6.9-1.8-9.3-0.4l-21.1,12.2c-2.4,1.4-2.1,3.8,0.7,5.4l24.4,14.1
		c2.7,1.6,6.9,1.8,9.3,0.4l21.1-12.2C719.4,207.4,719.1,205,716.4,203.4z"/>
	<path class="st1" d="M697.4,186.2l24.4,14.1c2.7,1.6,6.9,1.8,9.3,0.4l66.7-38.5c2.4-1.4,2.1-3.8-0.7-5.4l-24.4-14.1
		c-2.7-1.6-6.9-1.8-9.3-0.4l-66.7,38.5C694.4,182.3,694.7,184.7,697.4,186.2z"/>
	<path class="st1" d="M330,426.6l-24.4-14.1c-2.7-1.6-6.9-1.8-9.3-0.4l-66.7,38.5c-2.4,1.4-2.1,3.8,0.7,5.4l24.4,14.1
		c2.7,1.6,6.9,1.8,9.3,0.4l66.7-38.5C333,430.5,332.7,428.1,330,426.6z"/>
	<path class="st1" d="M369.1,422.6l24.4,14.1c2.7,1.6,6.9,1.8,9.3,0.4l21.1-12.2c2.4-1.4,2.1-3.8-0.7-5.4l-24.4-14.1
		c-2.7-1.6-6.9-1.8-9.3-0.4l-21.1,12.2C366.1,418.6,366.4,421.1,369.1,422.6z"/>
	<path class="st1" d="M437.9,416.8l21.1-12.2c2.4-1.4,2.1-3.8-0.7-5.4L434,385.2c-2.7-1.6-6.9-1.8-9.3-0.4L403.5,397
		c-2.4,1.4-2.1,3.8,0.7,5.4l24.4,14.1C431.3,418,435.5,418.2,437.9,416.8z"/>
	<path class="st1" d="M473,396.5l21.1-12.2c2.4-1.4,2.1-3.8-0.7-5.4l-24.4-14.1c-2.7-1.6-6.9-1.8-9.3-0.4l-21.1,12.2
		c-2.4,1.4-2.1,3.8,0.7,5.4l24.4,14.1C466.5,397.7,470.7,397.9,473,396.5z"/>
	<path class="st1" d="M508.1,376.3l21.1-12.2c2.4-1.4,2.1-3.8-0.7-5.4l-24.4-14.1c-2.7-1.6-6.9-1.8-9.3-0.4l-21.1,12.2
		c-2.4,1.4-2.1,3.8,0.7,5.4l24.4,14.1C501.6,377.4,505.8,377.6,508.1,376.3z"/>
	<path class="st1" d="M543.3,356l21.1-12.2c2.4-1.4,2.1-3.8-0.7-5.4l-24.4-14.1c-2.7-1.6-6.9-1.8-9.3-0.4l-21.1,12.2
		c-2.4,1.4-2.1,3.8,0.7,5.4l24.4,14.1C536.7,357.2,540.9,357.3,543.3,356z"/>
	<path class="st1" d="M578.4,335.7l21.1-12.2c2.4-1.4,2.1-3.8-0.7-5.4L574.5,304c-2.7-1.6-6.9-1.8-9.3-0.4l-21.1,12.2
		c-2.4,1.4-2.1,3.8,0.7,5.4l24.4,14.1C571.9,336.9,576,337.1,578.4,335.7z"/>
	<path class="st1" d="M613.5,315.4l21.1-12.2c2.4-1.4,2.1-3.8-0.7-5.4l-24.4-14.1c-2.7-1.6-6.9-1.8-9.3-0.4l-21.1,12.2
		c-2.4,1.4-2.1,3.8,0.7,5.4l24.4,14.1C607,316.6,611.2,316.8,613.5,315.4z"/>
	<path class="st1" d="M648.7,295.1l21.1-12.2c2.4-1.4,2.1-3.8-0.7-5.4l-24.4-14.1c-2.7-1.6-6.9-1.8-9.3-0.4l-21.1,12.2
		c-2.4,1.4-2.1,3.8,0.7,5.4l24.4,14.1C642.1,296.3,646.3,296.5,648.7,295.1z"/>
	<path class="st1" d="M683.8,274.8l21.1-12.2c2.4-1.4,2.1-3.8-0.7-5.4l-24.4-14.1c-2.7-1.6-6.9-1.8-9.3-0.4L649.5,255
		c-2.4,1.4-2.1,3.8,0.7,5.4l24.4,14.1C677.3,276,681.4,276.2,683.8,274.8z"/>
	<path class="st1" d="M685.3,240.1l24.4,14.1c2.7,1.6,6.9,1.8,9.3,0.4l21.1-12.2c2.4-1.4,2.1-3.8-0.7-5.4L715,222.9
		c-2.7-1.6-6.9-1.8-9.3-0.4l-21.1,12.2C682.2,236.1,682.5,238.5,685.3,240.1z"/>
	<path class="st1" d="M720.4,219.8l24.4,14.1c2.7,1.6,6.9,1.8,9.3,0.4l84.2-48.6c2.4-1.4,2.1-3.8-0.7-5.4l-24.4-14.1
		c-2.7-1.6-6.9-1.8-9.3-0.4l-84.2,48.6C717.4,215.8,717.7,218.2,720.4,219.8z"/>
	<path class="st1" d="M388.1,439.8l-24.4-14.1c-2.7-1.6-6.9-1.8-9.3-0.4L270.2,474c-2.4,1.4-2.1,3.8,0.7,5.4l24.4,14.1
		c2.7,1.6,6.9,1.8,9.3,0.4l84.2-48.6C391.1,443.8,390.8,441.4,388.1,439.8z"/>
	<path class="st3" d="M262.8,160.7l160.1-93.1c3-1.7,5.4-5.6,5.4-8.6V0H395v10c0,2.8-2.3,6.4-5.1,8l-94.1,54.7
		c-2.8,1.6-5.1,0.7-5.1-2.1V50.1c0-2.8,2.3-6.4,5.1-8l72.3-42h-23.2l-49.1,28.6c-2.8,1.6-5.1,0.7-5.1-2.1V5.9c0-1.9,1-4.1,2.6-5.9
		h-36v158.5C257.3,161.5,259.8,162.5,262.8,160.7z M290.7,94.3c0-2.8,2.3-6.4,5.1-8l94.1-54.7c2.8-1.6,5.1-0.7,5.1,2.1v20.5
		c0,2.8-2.3,6.4-5.1,8l-94.1,54.7c-2.8,1.6-5.1,0.7-5.1-2.1V94.3z"/>
	<path class="st3" d="M290.7,26.4c0,2.8,2.3,3.8,5.1,2.1L344.9,0h-51.6c-1.5,1.8-2.6,4-2.6,5.9V26.4z"/>
	<path class="st21" d="M290.7,26.4c0,2.8,2.3,3.8,5.1,2.1L344.9,0h-51.6c-1.5,1.8-2.6,4-2.6,5.9V26.4z"/>
	<path class="st3" d="M290.7,50.1v20.5c0,2.8,2.3,3.8,5.1,2.1L389.9,18c2.8-1.6,5.1-5.2,5.1-8V0h-26.9l-72.3,42
		C293,43.7,290.7,47.3,290.7,50.1z"/>
	<path class="st21" d="M290.7,50.1v20.5c0,2.8,2.3,3.8,5.1,2.1L389.9,18c2.8-1.6,5.1-5.2,5.1-8V0h-26.9l-72.3,42
		C293,43.7,290.7,47.3,290.7,50.1z"/>
	<path class="st2" d="M295.8,116.9l94.1-54.7c2.8-1.6,5.1-5.2,5.1-8V33.6c0-2.8-2.3-3.8-5.1-2.1l-94.1,54.7c-2.8,1.6-5.1,5.2-5.1,8
		v20.5C290.7,117.6,293,118.6,295.8,116.9z M317.9,89.4C317.9,89.4,317.9,89.4,317.9,89.4c0.1-1.3,1.1-2.9,2.4-3.7l45-26.2
		c1.3-0.8,2.4-0.3,2.4,0.9c0,0,0-0.1,0-0.1v0.2c0,0,0,0,0-0.1c0,1.3-1.1,3-2.4,3.8l-45,26.2C319,91.1,318,90.7,317.9,89.4
		c0,0.1,0,0.1,0,0.2V89.4z"/>
	<path class="st3" d="M317.9,89.4v0.2C317.9,89.5,317.9,89.5,317.9,89.4C317.9,89.4,317.9,89.4,317.9,89.4z"/>
	<path class="st3" d="M367.8,60.3C367.8,60.4,367.8,60.4,367.8,60.3c0,0.1,0,0.1,0,0.2V60.3z"/>
	<path class="st3" d="M320.3,90.4l45-26.2c1.3-0.8,2.4-2.4,2.4-3.8c0-1.3-1.1-1.7-2.4-0.9l-45,26.2c-1.3,0.8-2.4,2.4-2.4,3.8
		C318,90.7,319,91.1,320.3,90.4z"/>
	<polygon class="st22" points="868.3,390.7 868.3,390.7 873.7,394.9 873.7,394.9 	"/>
	<polygon class="st22" points="860.7,384.9 860.7,384.9 866.4,389.2 866.4,389.2 	"/>
	<polygon class="st22" points="853.2,379.1 853.2,379.1 858.8,383.4 858.8,383.4 	"/>
	<polygon class="st22" points="761.3,433 761.3,433 761.3,440 851.1,404 851.1,397.5 	"/>
	<polygon class="st22" points="851.3,377.6 851.1,377.4 851.3,377.6 	"/>
	<polygon class="st22" points="761.3,424.2 761.3,430.7 851.1,395.3 851.1,388.7 761.3,424.2 	"/>
	<polygon class="st22" points="761.3,415.4 761.3,415.4 761.3,421.9 851.1,386.5 851.1,379.9 	"/>
	<polygon class="st22" points="761.3,397.2 761.3,397.3 761.3,404.3 1014.8,304.2 1014.8,297.3 	"/>
	<polygon class="st22" points="761.3,406.6 761.3,406.6 761.3,413.1 851.1,377.7 851.1,377.4 958.1,335.4 1014.8,313 1014.8,311.4 
		1014.8,311.4 1014.8,306.4 	"/>
	<path class="st4" d="M847,277l2,1.7c4.3,3.6,9.3,6.2,14.6,7.8l0,0c3.3,0.7,6,3.3,6.8,6.8c0,0.2,0.1,0.4,0.1,0.6l0,0l0.3,0.6
		c2,3.4,5.6,5.5,9.5,5.6c0.8-0.3,1.7-0.4,2.6-0.4c4.8,0,8.6,3.9,8.6,8.6c0,0,0,0.1,0,0.1l14.4-1.8c5.8-0.7,11.8,0.3,17,3l9.5,4.6
		l61.1-23.7L932,242.2L844.9,276C845.6,276.3,846.3,276.7,847,277L847,277z M979.1,290.2l-51,19.8l-3.3-2.6l51.6-19.9L979.1,290.2z
		 M939.7,278.4c0,5.8-7.1,10.6-15.9,10.6s-15.9-4.7-15.9-10.6s7.1-10.6,15.9-10.6S939.7,272.5,939.7,278.4z M927.4,248.5l2.7,2.7
		l-51,19.8l-3.3-2.6L927.4,248.5z"/>
	<path class="st4" d="M838.1,350.8l-1-6.9c-0.5-5.9,0.8-11.9,3.7-17.1c0.7-1.3,1.5-2.5,2.4-3.6L838,319l-5.7,3.5
		c-3.3,2-7.6,1-9.6-2.2l-8.1-13.1c-0.7-0.9-1.3-1.9-1.8-2.9l-0.2-0.3l0,0c-0.5-1.2-1-2.4-1.2-3.7c-0.8-4-1.2-7.8-0.3-11.2
		l-115.1,44.6l61.2,48.4L838.1,350.8z M785.8,338.3c0,5.8-7.1,10.6-15.9,10.6c-8.8,0-15.9-4.7-15.9-10.6s7.1-10.6,15.9-10.6
		C778.7,327.7,785.8,332.4,785.8,338.3z M773.5,308.4l2.7,2.7l-51,19.8l-3.3-2.6L773.5,308.4z M770.9,367.3l51.6-19.9l2.7,2.7
		l-51,19.8L770.9,367.3z"/>
	<path class="st4" d="M678.8,333.1l8.6,6.7l73.8,57.4l253.5-100l-86.5-67.3l-224.1,88.5l-29.4,11.6L678.8,333.1z M927,235.3l1.5,1.2
		l0.1,0l67.3,53.1l0.1-0.1l7.4,6l-60.8,23.6l0,0l-103.3,40l0,0L762.4,389l-3.7-3l-71.5-56.3l-1.2-0.9l0,0l0,0l0.3-0.1L927,235.3z"/>
	<polygon class="st2" points="761.3,430.8 761.3,430.7 761.3,424.2 674.9,355.9 674.9,362.5 	"/>
	<polygon class="st2" points="674.9,364.7 674.9,370.9 745.7,427.6 761.3,440.1 761.3,440 761.3,433 	"/>
	<polygon class="st2" points="761.3,404.4 761.3,404.3 761.3,397.3 687.4,339.8 678.8,333.1 674.9,330.1 674.9,335.4 674.9,336.1 	
		"/>
	<polygon class="st2" points="761.3,413.2 761.3,413.1 761.3,406.6 674.9,338.3 674.9,344.9 	"/>
	<polygon class="st2" points="761.3,422 761.3,421.9 761.3,415.4 674.9,347.1 674.9,347.1 674.9,353.7 	"/>
	<polygon class="st1" points="761.3,404.3 761.3,404.4 761.3,406.6 1014.8,306.4 1014.8,304.2 	"/>
	<polygon class="st1" points="958.1,335.4 1014.8,313.2 1014.8,313 	"/>
	<polygon class="st1" points="851.3,377.6 851.3,377.6 853.2,379.1 853.2,379.1 	"/>
	<polygon class="st1" points="761.3,413.1 761.3,413.2 761.3,415.4 851.1,379.9 851.1,377.7 	"/>
	<polygon class="st1" points="761.3,422 761.3,424.2 851.1,388.7 851.1,386.5 761.3,421.9 	"/>
	<polygon class="st1" points="858.8,383.4 858.8,383.4 860.7,384.9 860.7,384.9 	"/>
	<polygon class="st1" points="761.3,430.8 761.3,433 851.1,397.5 851.1,395.3 761.3,430.7 	"/>
	<polygon class="st1" points="866.4,389.2 866.4,389.2 868.3,390.7 868.3,390.7 	"/>
	<polygon class="st1" points="761.3,406.6 761.3,406.6 761.3,404.4 674.9,336.1 674.9,338.3 	"/>
	<polygon class="st1" points="761.3,415.4 761.3,415.4 761.3,413.2 674.9,344.9 674.9,347.1 	"/>
	<polygon class="st1" points="761.3,424.2 761.3,424.2 761.3,422 674.9,353.7 674.9,355.9 	"/>
	<polygon class="st1" points="674.9,362.5 674.9,364.7 761.3,433 761.3,433 761.3,430.8 	"/>
	<polygon class="st1" points="928.5,236.5 928.5,236.5 928.5,236.5 	"/>
	<path class="st1" d="M757.2,382.1l5.8,4.6l-3.4,0l-0.9-0.7l3.7,3l76.9-29.8l-1.2-8.4L757.2,382.1z M794.2,370l24.5-9.1l2.7,2.7
		l-23.8,9L794.2,370z"/>
	<path class="st1" d="M998.5,294.3l-4.9-3.8l-61.1,23.7l10.1,5l60.8-23.6l-7.4-6l-0.1,0.1l6,4.8L998.5,294.3z M952,313l-3.3-2.6
		l24.5-9.1l2.7,2.7L952,313z"/>
	<path class="st1" d="M688.6,327.9l7.5,5.9l115.1-44.6c1.3-4.4,4.9-8.4,13-11.8c7.2-3.1,14.1-4.2,20.8-1.3l87.1-33.8l-4.6-3.6
		l1.1-2.1l0,0l-1.5-1.2l-240.7,93.3L688.6,327.9z M907.5,249l-23.8,9l-3.3-2.6l24.5-9.1L907.5,249z M750.3,305.9l2.7,2.7l-23.8,9
		l-3.3-2.6L750.3,305.9z"/>
	<polygon class="st1" points="686.1,328.7 686.1,328.7 687.3,329.7 	"/>
	<polygon class="st1" points="927.4,238.6 932,242.2 993.6,290.5 998.5,294.3 1001.9,294.4 995.8,289.6 928.5,236.5 928.5,236.5 	
		"/>
	<polygon class="st1" points="686.1,328.7 687.3,329.7 758.7,386 759.6,386.7 763,386.7 757.2,382.1 696.1,333.7 688.6,327.9 
		686.3,328.6 686.1,328.7 	"/>
	<ellipse class="st1" cx="769.9" cy="338.3" rx="15.9" ry="10.6"/>
	<polygon class="st1" points="825.2,350.1 822.5,347.4 770.9,367.3 774.2,369.9 	"/>
	<polygon class="st1" points="776.1,311.1 773.5,308.4 721.9,328.3 725.2,330.9 	"/>
	<ellipse class="st1" cx="923.8" cy="278.4" rx="15.9" ry="10.6"/>
	<polygon class="st1" points="928.1,310 979.1,290.2 976.4,287.5 924.8,307.4 	"/>
	<polygon class="st1" points="930.1,251.2 927.4,248.5 875.8,268.4 879.1,271 	"/>
	<polygon class="st2" points="883.7,258 907.5,249 904.9,246.3 880.4,255.4 	"/>
	<polygon class="st2" points="948.7,310.4 952,313 975.8,304 973.2,301.3 	"/>
	<polygon class="st2" points="729.2,317.6 753,308.6 750.3,305.9 725.9,315 	"/>
	<polygon class="st2" points="818.6,360.9 794.2,370 797.5,372.6 821.3,363.6 	"/>
	<path class="st1" d="M922.9,309.6c-5.3-2.7-11.2-3.7-17-3l-14.4,1.8c0,0,0-0.1,0-0.1c0-4.8-3.9-8.6-8.6-8.6c-0.9,0-1.7,0.1-2.6,0.4
		c-3.9,0-7.6-2.1-9.5-5.6l-0.3-0.6l0,0c0-0.2-0.1-0.4-0.1-0.6c-0.7-3.5-3.5-6.1-6.8-6.8l0,0c-5.4-1.5-10.3-4.2-14.6-7.8l-2-1.7l0,0
		c-0.7-0.4-1.4-0.7-2.1-1c-6.7-2.9-13.6-1.8-20.8,1.3c-8,3.4-11.7,7.4-13,11.8c-1,3.4-0.6,7.2,0.3,11.2c0.3,1.3,0.7,2.5,1.2,3.7l0,0
		l0.2,0.3c0.5,1,1.1,2,1.8,2.9l8.1,13.1c2,3.3,6.3,4.3,9.6,2.2l5.7-3.5l5.2,4.2c-0.9,1.1-1.7,2.3-2.4,3.6
		c-2.9,5.2-4.2,11.1-3.7,17.1l1,6.9l1.2,8.4l0,0l103.3-40l0,0l-10.1-5L922.9,309.6z"/>
	<polygon class="st6" points="923.5,536.7 1157.1,444.9 1157.1,438.3 923.5,530.1 	"/>
	<polygon class="st6" points="962.8,507.1 961.2,505.8 923.5,520.6 923.5,520.7 923.5,527.8 1157.1,436 1157.1,429.2 962.8,507 	"/>
	<polygon class="st6" points="923.5,541.9 928.1,543.8 1157.1,453.8 1157.1,447.2 923.5,538.9 	"/>
	<polygon class="st6" points="939.4,548.2 1157.1,462.7 1157.1,456 931,544.9 	"/>
	<polygon class="st6" points="951.1,552.8 1157.1,470.3 1157.1,464.9 942.2,549.3 	"/>
	<polygon class="st1" points="811.7,467 891.2,529.2 908.3,536 811.7,460.3 	"/>
	<polygon class="st1" points="811.7,458.1 914.1,538.2 923.5,541.9 923.5,538.9 811.7,451.4 	"/>
	<polygon class="st1" points="811.7,475.5 868.1,520.1 885.5,526.9 811.7,469.2 	"/>
	<polygon class="st1" points="811.7,434.2 811.7,440.3 923.5,527.8 923.5,520.7 819.7,440.4 	"/>
	<polygon class="st1" points="811.7,442.5 811.7,445 811.7,449.2 923.5,536.7 923.5,530.1 	"/>
	<polygon class="st1" points="923.5,538.9 1157.1,447.2 1157.1,447.2 1157.1,444.9 1157.1,444.9 923.5,536.7 	"/>
	<polygon class="st1" points="942.2,549.3 1157.1,464.9 1157.1,464.9 1157.1,462.7 1157.1,462.7 939.4,548.2 	"/>
	<polygon class="st1" points="931,544.9 1157.1,456 1157.1,456 1157.1,453.8 1157.1,453.8 928.1,543.8 	"/>
	<polygon class="st1" points="923.5,530.1 1157.1,438.3 1157.1,438.3 1157.1,436 1157.1,436 923.5,527.8 	"/>
	<polygon class="st23" points="996,450.7 988.2,453.8 988.2,453.8 996.3,450.6 996.3,450.6 	"/>
	<polygon class="st23" points="886.6,404.9 886.6,404.9 886.7,404.9 886.7,404.9 	"/>
	<polygon class="st23" points="851.2,418.8 851.2,418.8 811.7,434.2 844.2,421.5 	"/>
	<polygon class="st2" points="811.7,451.4 923.5,538.9 923.5,536.7 811.7,449.2 	"/>
	<polygon class="st2" points="811.7,460.3 908.3,536 914.1,538.2 811.7,458.1 	"/>
	<polygon class="st2" points="811.7,469.2 885.5,526.9 891.2,529.2 811.7,467 	"/>
	<polygon class="st2" points="811.7,440.3 811.7,442.5 923.5,530.1 923.5,527.8 	"/>
	<polygon class="st3" points="819.7,440.4 923.5,520.6 956.7,507.6 882.5,450.9 882.5,450.9 872.4,443.1 844.2,421.5 811.7,434.2 	
		"/>
	<polygon class="st1" points="962.8,463.8 954.6,457.5 954.6,457.5 962.8,463.8 962.8,463.8 965.7,462.6 965.7,462.6 	"/>
	<polygon class="st1" points="968.4,461.6 968.4,461.6 974,459.4 974,459.4 	"/>
	<path class="st1" d="M948.5,452.8C948.5,452.8,948.5,452.8,948.5,452.8l3.4,2.6l0,0L948.5,452.8z"/>
	<polygon class="st1" points="924.7,434.4 924.7,434.4 934.9,442.2 934.9,442.2 	"/>
	<polygon class="st1" points="976.6,458.4 976.6,458.4 988.2,453.8 988.2,453.8 	"/>
	<polygon class="st1" points="956.7,507.6 961.2,505.8 945.6,493.5 940.7,495.4 938,493.3 942.9,491.4 901.5,458.6 895.6,460.9 
		892.9,458.8 898.8,456.5 888.7,448.5 882.5,450.9 	"/>
	<path class="st1" d="M937.6,444.3L937.6,444.3l8.9,6.9c0,0,0,0,0,0L937.6,444.3z"/>
	<polygon class="st1" points="886.7,404.9 886.7,404.9 897.6,413.4 897.6,413.4 	"/>
	<polygon class="st1" points="872.4,443.1 855.2,430 862,427.3 851.2,418.8 844.2,421.5 	"/>
	<polygon class="st3" points="1121.5,401.5 1121.5,401.5 1063.1,424.4 1063.1,424.4 	"/>
	<polygon class="st2" points="974,459.4 974,459.4 976.6,458.4 976.6,458.4 	"/>
	<polygon class="st2" points="897.6,413.4 897.6,413.4 924.7,434.4 924.7,434.4 	"/>
	<polygon class="st2" points="934.9,442.2 934.9,442.2 937.6,444.3 937.6,444.3 	"/>
	<polygon class="st2" points="895.6,460.9 901.5,458.6 898.8,456.5 892.9,458.8 	"/>
	<polygon class="st2" points="965.7,462.6 965.7,462.6 968.4,461.6 968.4,461.6 	"/>
	<polygon class="st2" points="951.9,455.4 951.9,455.4 954.6,457.5 954.6,457.5 	"/>
	<polygon class="st2" points="940.7,495.4 945.6,493.5 942.9,491.4 938,493.3 	"/>
	<path class="st2" d="M946.5,451.2C946.5,451.2,946.5,451.2,946.5,451.2l2,1.6c0,0,0,0,0,0L946.5,451.2z"/>
	<polygon class="st2" points="872.4,443.1 882.5,450.9 882.5,450.9 888.7,448.5 862,427.3 855.2,430 	"/>
	<polygon class="st3" points="996.3,450.6 996.9,450.4 996.3,450.6 	"/>
	<polygon class="st6" points="1135.3,396.1 1121.5,401.5 1063.1,424.4 1063.5,424.8 996.9,450.4 996.3,450.6 988.2,453.8 
		976.6,458.4 974,459.4 968.4,461.6 965.7,462.6 962.8,463.8 962.8,463.8 962.8,471 1196.4,379.2 1196.4,372.1 1135.4,396.1 	"/>
	<polygon class="st6" points="962.8,473.2 962.8,479.8 1196.4,388.1 1196.4,381.4 	"/>
	<polygon class="st6" points="962.8,482.1 962.8,488.7 1196.4,396.9 1196.4,390.3 	"/>
	<polygon class="st6" points="962.8,499.8 962.8,507 1157.1,429.2 1196.4,413.4 1196.4,408.1 	"/>
	<polygon class="st6" points="962.8,491 962.8,497.6 1196.4,405.8 1196.4,399.2 	"/>
	<polygon class="st1" points="851.1,418.7 851.2,418.8 851.2,418.8 862,427.3 888.7,448.5 898.8,456.5 901.5,458.6 942.9,491.4 
		945.6,493.5 961.2,505.8 961.2,505.8 962.8,507.1 962.8,507 962.8,499.8 851.1,412.3 851.1,410.1 962.8,497.6 962.8,491 
		851.1,403.5 851.1,401.2 962.8,488.7 962.8,482.1 851.1,394.6 851.1,392.3 962.8,479.8 962.8,473.2 851.1,385.7 851.1,383.5 
		962.8,471 962.8,463.8 954.6,457.5 951.9,455.4 948.5,452.8 946.5,451.2 937.6,444.3 934.9,442.2 924.7,434.4 897.6,413.4 
		886.7,404.9 886.6,404.9 884.3,403.1 873.7,394.9 868.3,390.7 866.4,389.2 860.7,384.9 858.8,383.4 853.2,379.1 851.3,377.6 
		851.1,377.4 851.1,377.7 851.1,379.9 851.1,386.5 851.1,388.7 851.1,395.3 851.1,397.5 851.1,404 851.1,406 851.1,406 	"/>
	<polygon class="st1" points="962.8,479.8 962.8,482.1 1196.4,390.3 1196.4,388.1 	"/>
	<polygon class="st1" points="962.8,488.7 962.8,491 1196.4,399.2 1196.4,396.9 	"/>
	<polygon class="st1" points="962.8,497.6 962.8,499.8 1196.4,408.1 1196.4,405.8 	"/>
	<polygon class="st1" points="962.8,471 962.8,473.2 1196.4,381.4 1196.4,379.2 	"/>
	<path class="st2" d="M1014.8,313.2l-56.7,22.3l-107,42l32.4-12.7l68-26.5l10.9,8.4l0.2-0.1l27.5,20.8l-0.6,0.2l73.5,56.9l58.5-22.9
		l13.8-5.4l-11.1-8.6l0,0l-27.7,10.6l-7.7-5.8l27.8-10.6l-1.4-1.1l-27.6,10.5l-7.7-5.8l27.7-10.6l0.1,0l-0.1,0l0,0l-61.8-47.8
		l-10.9-8.4l0,0l-11.3-8.7l61.1-24l-11.7,4.6l0,0L1014.8,313.2z M1022.4,348.3l5.6,2.8l5.5-1.9l-1,4.8l4.5,3.8l-6.1,0.3l-2.8,4.4
		l-2.9-4.8l-6.4-1.2l4.7-3.3L1022.4,348.3z M997.2,360.5l-1.1-5.1l5.6,2.8l5.5-1.9l-1,4.8l4.5,3.8l-6.1,0.3l-2.8,4.4l-2.9-4.8
		l-6.4-1.2L997.2,360.5z M1066.5,406.1l-2.8,4.4l-2.9-4.8l-6.4-1.2l4.7-3.3l-1.1-5.1l5.6,2.8l5.5-1.9l-1,4.8l4.5,3.8L1066.5,406.1z
		 M1076.7,380.1l-2.8,4.4l-2.9-4.8l-6.4-1.2l4.7-3.3l-1.1-5.1l5.6,2.8l5.5-1.9l-1,4.8l4.5,3.8L1076.7,380.1z M1062.1,356.1l4.5,3.8
		l-6.1,0.3l-2.8,4.4l-2.9-4.8l-6.4-1.2l4.7-3.3l-1.1-5.1l5.6,2.8l5.5-1.9L1062.1,356.1z M1034.9,318.5l2.7,2.1l-61.7,24.5l-2.7-2.1
		L1034.9,318.5z"/>
	<polygon class="st2" points="851.1,383.5 851.1,385.7 962.8,473.2 962.8,471 	"/>
	<polygon class="st2" points="851.1,410.1 851.1,412.3 962.8,499.8 962.8,497.6 	"/>
	<polygon class="st2" points="851.1,392.3 851.1,394.6 962.8,482.1 962.8,479.8 	"/>
	<polygon class="st2" points="851.1,401.2 851.1,403.5 962.8,491 962.8,488.7 	"/>
	<polygon class="st3" points="853.2,379.1 858.8,383.4 860.7,384.9 866.4,389.2 868.3,390.7 873.7,394.9 884.3,403.1 886.6,404.9 
		886.7,404.9 897.6,413.4 924.7,434.4 934.9,442.2 937.6,444.3 946.5,451.2 948.5,452.8 951.9,455.4 954.6,457.5 962.8,463.8 
		965.7,462.6 968.4,461.6 974,459.4 976.6,458.4 988.2,453.8 996,450.7 978.7,437.5 977.3,436.5 977.3,436.5 934.9,404 934.9,404 
		932.2,402 932.2,402 921.8,394 921.8,394 911.7,386.3 883.5,364.7 851.1,377.4 851.3,377.6 	"/>
	<polygon class="st2" points="1088.8,392.3 1096.5,398.1 1124.2,387.5 1116.6,381.7 	"/>
	<polygon class="st6" points="1107.6,374.7 1079.9,385.2 1087.6,391.1 1115.2,380.6 1107.6,374.7 	"/>
	<polygon class="st2" points="911.7,386.3 894.5,373.1 962.4,346.6 951.5,338.1 883.5,364.7 	"/>
	<polygon class="st2" points="1008.8,405.6 1014.4,403.4 1005.2,396.2 999.5,398.4 	"/>
	<path class="st2" d="M921.8,394l10.4,7.9l67.4-26.6l2.7,2.1L934.9,404l42.4,32.4l12.1-4.8l-24.4-19c-2.3-1.8-3.4-4.6-3-7.4
		c0.4-2.8,2.3-5.2,5-6.2c4.1-1.6,9.6-0.5,12.6,1.6l0,0l29.7,23.2l3.4-1.3l-24.4-19c-2.3-1.8-3.4-4.6-3-7.4c0.4-2.8,2.3-5.2,5-6.2
		c4.1-1.6,9.6-0.5,12.6,1.6l0,0l29.7,23.2l11.6-4.6l2.7,2.1l-67,26.4l-1.3-1l17.3,13.2l0.3-0.1l0.6-0.2l66.6-25.6l-0.4-0.3l0,0
		l-73.5-56.9L921.8,394z"/>
	<path class="st2" d="M1002.5,394.1l-1-0.8c-1.6-1.1-4.2-1.9-6.8-1.9c-1.2,0-2.4,0.2-3.5,0.6l5.6,4.3L1002.5,394.1z"/>
	<polygon class="st2" points="1011.5,407.7 1022.8,416.4 1028.2,414.2 1017.1,405.5 	"/>
	<polygon class="st2" points="988.1,416.8 999.4,425.5 1004.9,423.4 993.7,414.7 	"/>
	<polygon class="st2" points="985.4,414.8 991,412.6 981.9,405.4 976.2,407.6 	"/>
	<polygon class="st2" points="996.9,399.5 990.5,402 999.6,409.1 1006.2,406.6 	"/>
	<polygon class="st2" points="996.8,426.6 985.5,417.9 979,420.4 990.2,429.2 	"/>
	<path class="st2" d="M965.8,402.7c-0.7,0.8-1.2,1.8-1.4,2.9c-0.2,1.2,0,2.3,0.6,3.3l5.9-2.3L965.8,402.7z"/>
	<path class="st2" d="M979.2,403.3l-1-0.8c-1.6-1.1-4.2-1.9-6.8-1.9c-1.2,0-2.4,0.2-3.5,0.6l5.6,4.3L979.2,403.3z"/>
	<path class="st2" d="M989.2,393.5c-0.7,0.8-1.2,1.8-1.4,2.9c-0.2,1.2,0,2.3,0.6,3.3l5.9-2.3L989.2,393.5z"/>
	<polygon class="st2" points="973.6,408.7 967.1,411.2 976.3,418.3 982.8,415.8 	"/>
	<polygon class="st2" points="1020.1,417.4 1008.8,408.7 1002.3,411.2 1013.6,420 	"/>
	<polygon class="st2" points="973.3,343 975.9,345.1 1037.6,320.6 1034.9,318.5 	"/>
	<polygon class="st1" points="1023.5,353.4 1018.9,356.6 1025.3,357.8 1028.2,362.6 1030.9,358.2 1037.1,357.9 1032.6,354 
		1033.6,349.2 1028.1,351.1 1022.4,348.3 	"/>
	<polygon class="st1" points="1057.6,353.1 1051.9,350.3 1053,355.4 1048.3,358.7 1054.8,359.9 1057.6,364.7 1060.4,360.2 
		1066.5,359.9 1062.1,356.1 1063.1,351.2 	"/>
	<polygon class="st2" points="1069.1,397.1 1063.6,398.9 1058,396.1 1059.1,401.2 1054.4,404.5 1060.8,405.7 1063.7,410.5 
		1066.5,406.1 1072.6,405.7 1068.1,401.9 	"/>
	<polygon class="st1" points="1079.3,371.1 1073.8,373 1068.2,370.2 1069.3,375.3 1064.6,378.6 1071,379.8 1073.9,384.6 
		1076.7,380.1 1082.8,379.8 1078.3,376 	"/>
	<polygon class="st2" points="1001.8,369.8 1004.6,365.4 1010.7,365 1006.2,361.2 1007.2,356.4 1001.7,358.2 996.1,355.4 
		997.2,360.5 992.5,363.8 998.9,365 	"/>
	<polygon class="st3" points="1023.6,309.8 1034.9,318.5 1060.9,308.2 1077.7,321 1051.5,331.3 1045.8,326.9 1107.6,374.7 
		1146.2,359.5 1163,372.3 1124.2,387.5 1135.3,396.1 1135.3,396.1 1135.4,396.1 1196.4,372.1 1084.7,285.8 	"/>
	<polygon class="st1" points="1077.7,321 1060.9,308.2 1034.9,318.5 1034.9,318.5 1045.8,326.9 1051.5,331.3 	"/>
	<polygon class="st1" points="1146.2,359.5 1107.6,374.7 1107.6,374.7 1107.6,374.7 1115.2,380.6 1116.6,381.7 1124.2,387.5 
		1124.2,387.5 1163,372.3 	"/>
	<polygon class="st1" points="894.5,373.1 911.7,386.3 921.8,394 921.8,394 989.5,367.6 990.1,367.3 962.6,346.5 962.4,346.6 	"/>
	<polygon class="st2" points="1002.3,377.5 999.6,375.4 932.2,402 932.2,402 934.9,404 934.9,404 	"/>
	<path class="st1" d="M1047,412.1l-2.7-2.1l-11.6,4.6l-29.7-23.2l0,0c-2.9-2.1-8.5-3.2-12.6-1.6c-2.7,1.1-4.6,3.4-5,6.2
		c-0.4,2.8,0.7,5.6,3,7.4l24.4,19l-3.4,1.3l-29.7-23.2l0,0c-2.9-2.1-8.5-3.2-12.6-1.6c-2.7,1.1-4.6,3.4-5,6.2
		c-0.4,2.8,0.7,5.6,3,7.4l24.4,19l-12.1,4.8h0l1.4,1.1l1.3,1L1047,412.1z M1028.2,414.2l-5.5,2.2l-11.3-8.7l5.6-2.2L1028.2,414.2z
		 M1005.2,396.2l9.2,7.2l-5.6,2.2l-9.2-7.1L1005.2,396.2z M994.8,391.4c2.5,0,5.2,0.8,6.8,1.9l1,0.8l-5.7,2.2l-5.6-4.3
		C992.3,391.6,993.5,391.4,994.8,391.4z M988.3,399.7c-0.5-1-0.7-2.1-0.6-3.3c0.2-1.1,0.7-2.1,1.4-2.9l5.1,3.9L988.3,399.7z
		 M990.5,402l6.4-2.5l9.2,7.1l-6.5,2.5L990.5,402z M1002.3,411.2l6.5-2.6l11.3,8.7l-6.6,2.6L1002.3,411.2z M1004.9,423.4l-5.5,2.2
		l-11.3-8.7l5.6-2.2L1004.9,423.4z M981.9,405.4l9.2,7.2l-5.6,2.2l-9.2-7.1L981.9,405.4z M971.4,400.6c2.6,0,5.2,0.8,6.8,1.9l1,0.8
		l-5.7,2.2l-5.6-4.3C969,400.8,970.2,400.6,971.4,400.6z M965,408.9c-0.5-1-0.7-2.1-0.6-3.3c0.2-1.1,0.7-2.1,1.4-2.9l5.1,3.9
		L965,408.9z M967.1,411.2l6.4-2.5l9.2,7.1l-6.5,2.5L967.1,411.2z M979,420.4l6.5-2.6l11.3,8.7l-6.6,2.6L979,420.4z"/>
	<polygon class="st1" points="915.7,642.9 915.7,642.9 854.4,618.7 854.4,618.7 740.2,573.7 740.1,573.7 704.9,559.9 705,559.8 
		655.3,540.2 655.3,547.3 915.7,650.2 	"/>
	<polygon class="st1" points="915.7,661.5 655.3,558.6 655.3,565.4 915.7,668.3 	"/>
	<polygon class="st1" points="915.7,670.5 655.3,567.7 655.3,574.4 915.7,677.3 	"/>
	<polygon class="st1" points="915.7,652.5 655.3,549.6 655.3,556.4 915.7,659.2 	"/>
	<polygon class="st1" points="655.3,576.7 655.3,582.2 915.7,686.9 915.7,679.6 	"/>
	<polygon class="st22" points="915.7,650.2 1004.5,580 1004.5,582.3 915.7,652.5 915.7,659.2 1004.5,589.1 1004.5,591.4 
		915.7,661.5 915.7,668.3 1004.5,598.1 1004.5,600.4 915.7,670.5 915.7,677.3 1004.5,607.2 1004.5,609.4 915.7,679.6 915.7,686.9 
		915.7,686.9 1004.5,615.9 1004.5,573.9 915.7,642.9 	"/>
	<polygon class="st2" points="915.7,668.3 655.3,565.4 655.3,567.7 915.7,670.5 	"/>
	<polygon class="st2" points="915.7,677.3 655.3,574.4 655.3,576.7 915.7,679.6 	"/>
	<polygon class="st2" points="915.7,650.2 655.3,547.3 655.3,549.6 915.7,652.5 	"/>
	<polygon class="st2" points="915.7,659.2 655.3,556.4 655.3,558.6 915.7,661.5 	"/>
	<polygon class="st3" points="906.1,626 898,631.6 857.9,616 854.4,618.7 915.8,642.9 926.9,634.2 872.8,612.9 	"/>
	<polygon class="st3" points="712,554.4 693.9,547.3 698.6,544.2 666.4,531.5 655.3,540.2 705,559.8 	"/>
	<path class="st3" d="M939.4,548.2l-8.4-3.3l-2.8-1.1l-4.6-1.8l-9.4-3.7l-5.8-2.3l-17.1-6.7l-5.8-2.3l-17.4-6.9l-110.7-43.6
		l-13.3-5.2l-31.1,24.2l49.9,19.7l10.4-8c-4-0.5-8.6-1.7-13.3-3.3c-13.4-4.7-23.1-12.2-21.5-16.6c1.6-4.4,13.7-4.2,27.1,0.6
		c8.4,3,15.3,7,18.9,10.6l9.5-7.4l12.2,4.8l0,0l137,54l-7.6,5.9l0.1,0l-3.7,2.8l-0.1,0L912,573.9l61.4,24.2l31.2-24.2l-53.5-21.1
		l-8.8-3.5L939.4,548.2z M980.5,581.8c-1.6,4.4-13.8,4-27.1-0.9s-22.9-12.4-21.3-16.9c1.6-4.4,13.8-4,27.1,0.9
		C972.6,569.8,982.1,577.4,980.5,581.8z"/>
	<polygon class="st22" points="880.8,598.3 877.1,601.1 877.1,601 865.5,610 872.8,612.9 926.9,634.2 926.9,634.2 973.4,598.1 
		973.4,598.1 912,573.9 880.7,598.2 	"/>
	<polygon class="st22" points="715.1,533.3 731.1,539.6 762.8,515.1 712.9,495.4 712.9,495.4 679.5,521.4 666.4,531.5 666.4,531.5 
		698.6,544.2 	"/>
	<polygon class="st2" points="831.6,605.7 839.9,599.9 865.5,610 877.1,601 780.3,563.6 765.2,575.1 747.3,568.1 740.2,573.7 
		854.4,618.7 854.4,618.7 854.4,618.7 857.9,616 	"/>
	<polygon class="st2" points="821,511.1 935.5,555.6 943.1,549.7 806.2,495.7 806.1,495.7 829.1,504.8 	"/>
	<polygon class="st2" points="817.1,514 766.2,553.5 784.2,560.6 784.2,560.6 784.2,560.6 819,533.2 838.2,526.7 840.8,527.7 
		836.6,540.2 801.8,567.5 815.9,573 837,556.6 856.2,550 863.8,553 868.2,549.6 887.4,543 890,544 885.7,556.5 881.5,559.9 
		891.5,563.8 887.3,576.3 866.3,592.6 880.7,598.2 912,573.9 931.9,558.4 	"/>
	<polygon class="st2" points="821,511.1 817.1,514 931.9,558.4 932,558.4 935.7,555.6 935.5,555.6 	"/>
	<polygon class="st1" points="831.6,605.7 857.9,616 898,631.6 906.1,626 872.8,612.9 865.5,610 839.9,599.9 	"/>
	<polygon class="st1" points="1004.5,609.4 1004.5,607.2 915.7,677.3 915.7,679.6 	"/>
	<polygon class="st1" points="1004.5,582.3 1004.5,580 915.7,650.2 915.7,652.5 	"/>
	<polygon class="st1" points="1004.5,591.4 1004.5,589.1 915.7,659.2 915.7,661.5 	"/>
	<polygon class="st1" points="1004.5,600.4 1004.5,598.1 915.7,668.3 915.7,670.5 	"/>
	
		<ellipse transform="matrix(0.3442 -0.9389 0.9389 0.3442 89.2326 1273.6031)" class="st1" cx="956.3" cy="572.9" rx="8.5" ry="25.8"/>
	<path class="st1" d="M766.2,553.5l50.9-39.5l3.8-3l8.1-6.3l-23-9l-12.2-4.8l-9.5,7.4c2.2,2.2,3.2,4.3,2.6,6
		c-1,2.9-6.5,3.8-13.9,2.8l-10.4,8l-31.7,24.6L766.2,553.5z"/>
	<polygon class="st1" points="747.3,568.1 712,554.4 705,559.8 705,559.8 704.9,559.9 740.1,573.7 740.2,573.7 	"/>
	<polygon class="st1" points="836.6,540.2 840.8,527.7 838.2,526.7 819,533.2 784.2,560.6 801.8,567.5 	"/>
	<polygon class="st1" points="887.3,576.3 891.5,563.8 881.5,559.9 885.7,556.5 890,544 887.4,543 868.2,549.6 863.8,553 856.2,550 
		837,556.6 815.9,573 866.3,592.6 	"/>
	<path class="st1" d="M787,504.3c0.6-1.7-0.4-3.8-2.6-6c-3.6-3.7-10.5-7.7-18.9-10.6c-13.4-4.7-25.6-5-27.1-0.6
		c-1.6,4.4,8.1,11.9,21.5,16.6c4.7,1.7,9.3,2.8,13.3,3.3C780.5,508,786,507.1,787,504.3z"/>
	<polygon class="st2" points="877.1,601 877.1,601.1 880.8,598.3 880.7,598.2 866.3,592.6 815.9,573 801.8,567.5 784.2,560.6 
		784.2,560.6 780.3,563.6 	"/>
	<polygon class="st1" points="747.3,568.1 765.2,575.1 780.3,563.6 784.2,560.6 784.2,560.6 766.2,553.5 731.1,539.6 715.1,533.3 
		698.6,544.2 693.9,547.3 712,554.4 	"/>
</g>
</svg>
