<?xml version="1.0" encoding="utf-8"?>
<!-- Generator: Adobe Illustrator 21.1.0, SVG Export Plug-In . SVG Version: 6.00 Build 0)  -->
<svg version="1.1" id="Layer_1" xmlns="http://www.w3.org/2000/svg" xmlns:xlink="http://www.w3.org/1999/xlink" x="0px" y="0px"
	 viewBox="0 0 425.5 390" style="enable-background:new 0 0 425.5 390;" xml:space="preserve">
<style type="text/css">
	.st0{fill:#F1F6FF;}
	.st1{fill:#FFFFFF;}
	.st2{fill:#ACB9D1;}
	.st3{fill:none;stroke:#ACB9D1;stroke-width:2;stroke-linecap:round;stroke-linejoin:round;stroke-miterlimit:10;}
</style>
<rect x="41.2" y="0.1" class="st0" width="384.3" height="389.8"/>
<g>
	<polyline class="st1" points="204.9,315.3 10.2,315.3 10.2,68 212.7,68 212.7,134.8 	"/>
	<polygon class="st0" points="205.6,225.4 205.6,243.1 194.1,243.1 194.1,279.2 201.6,279.2 201.6,315.3 325.1,315.3 325.1,279.2 
		308.7,279.2 308.7,243.1 329.1,243.1 329.1,207 205.6,207 	"/>
	<polygon class="st0" points="212.7,134.8 205.6,134.8 205.6,170.9 194.1,170.9 194.1,207 212.7,207 317.6,207 317.6,170.9 
		329.1,170.9 329.1,134.8 	"/>
	<g>
		<path class="st2" d="M51,180.8v-73.6h25.3c8.4,0,15.1,1.8,20.3,5.4c5.2,3.6,7.8,9.5,7.8,17.6c0,5.4-1.3,10-4,13.7
			c-2.7,3.8-6,6.5-10.1,8.1c-4,1.6-8.6,2.4-13.6,2.4h-7.4v26.4H51z M69.3,139.9h6.6c7.1,0,10.6-3.3,10.6-9.8c0-5.7-3.7-8.5-11.1-8.5
			h-6.2L69.3,139.9L69.3,139.9z"/>
	</g>
	<polyline class="st3" points="174.7,315.3 10.2,315.3 10.2,68 212.7,68 212.7,134.8 	"/>
	<line class="st3" x1="127.2" y1="139" x2="174.7" y2="139"/>
	<line class="st3" x1="127.2" y1="169.5" x2="174.7" y2="169.5"/>
	<line class="st3" x1="48.6" y1="215.1" x2="157.6" y2="215.1"/>
	<line class="st3" x1="48.6" y1="245.5" x2="134.8" y2="245.5"/>
	<line class="st3" x1="48.6" y1="275.9" x2="127.2" y2="275.9"/>
	<g>
		<g>
			<polyline class="st3" points="264.8,279.2 324.2,279.2 324.2,315.3 248.9,315.3 			"/>
			<g>
				<line class="st3" x1="293.3" y1="279.2" x2="293.3" y2="315.3"/>
				<line class="st3" x1="262.4" y1="295.9" x2="262.4" y2="315.3"/>
			</g>
		</g>
		<g>
			<polyline class="st3" points="252,243.1 308.7,243.1 308.7,279.2 			"/>
			<g>
				<line class="st3" x1="277.8" y1="243.1" x2="277.8" y2="279.2"/>
			</g>
		</g>
		<g>
			<polyline class="st3" points="205.6,225.6 205.6,207 329.1,207 329.1,243.1 252,243.1 			"/>
			<g>
				<line class="st3" x1="298.2" y1="207" x2="298.2" y2="243.1"/>
				<line class="st3" x1="267.3" y1="207" x2="267.3" y2="243.1"/>
				<line class="st3" x1="236.5" y1="207" x2="236.5" y2="231.8"/>
			</g>
		</g>
		<g>
			<rect x="194.1" y="170.9" class="st3" width="123.5" height="36.1"/>
			<g>
				<line class="st3" x1="286.7" y1="170.9" x2="286.7" y2="207"/>
				<line class="st3" x1="255.9" y1="170.9" x2="255.9" y2="207"/>
				<line class="st3" x1="225" y1="170.9" x2="225" y2="207"/>
			</g>
		</g>
		<g>
			<rect x="205.6" y="134.8" class="st3" width="123.5" height="36.1"/>
			<g>
				<line class="st3" x1="298.2" y1="134.8" x2="298.2" y2="170.9"/>
				<line class="st3" x1="267.3" y1="134.8" x2="267.3" y2="170.9"/>
				<line class="st3" x1="236.5" y1="134.8" x2="236.5" y2="170.9"/>
			</g>
		</g>
	</g>
	<g>
		<circle class="st1" cx="212.7" cy="277.6" r="52.2"/>
	</g>
	<g>
		<circle class="st3" cx="212.7" cy="277.6" r="52.2"/>
		<polyline class="st3" points="190.1,276.6 205.6,292.2 235.3,259.2 		"/>
	</g>
	<rect x="42.6" y="159.9" class="st2" width="51.6" height="10.8"/>
</g>
</svg>
